<svg id="ic-archive" xmlns="http://www.w3.org/2000/svg" width="24" height="24" viewBox="0 0 24 24">
  <g id="Group_456" data-name="Group 456">
    <rect id="Rectangle_592" data-name="Rectangle 592" width="24" height="24" fill="none"/>
  </g>
  <g id="Group_457" data-name="Group 457">
    <path id="Path_1772" data-name="Path 1772" d="M20,6H12L10,4H4A2,2,0,0,0,2.01,6L2,18a2.006,2.006,0,0,0,2,2H20a2.006,2.006,0,0,0,2-2V8a2.006,2.006,0,0,0-2-2ZM16,16h2V14H16V12h2V10H16V8h4V18H16Zm0,0H14v2H4V6H9.17l2,2H14v2h2v2H14v2h2Z" fill="#5ebe77"/>
  </g>
</svg>
