<svg id="ic-account-manage-title" xmlns="http://www.w3.org/2000/svg" width="32" height="32" viewBox="0 0 32 32">
  <g id="Group_547" data-name="Group 547">
    <path id="Path_1845" data-name="Path 1845" d="M0,0H32V32H0Z" fill="none"/>
  </g>
  <g id="Group_549" data-name="Group 549" transform="translate(2.688 5.116)">
    <g id="Group_548" data-name="Group 548">
      <path id="Path_1846" data-name="Path 1846" d="M4.688,19.721v-.874a1.271,1.271,0,0,1,.551-1.089,14.637,14.637,0,0,1,7.514-2.07.3.3,0,0,1,.108.013,9.255,9.255,0,0,1,.793-2.662c-.3-.027-.591-.04-.9-.04a17.308,17.308,0,0,0-8.885,2.446A3.928,3.928,0,0,0,2,18.847v3.562H14.447a9.588,9.588,0,0,1-1.3-2.688Z" transform="translate(-2 -0.902)" fill="#5c719c"/>
      <path id="Path_1847" data-name="Path 1847" d="M11.377,14.754A5.377,5.377,0,1,0,6,9.377,5.375,5.375,0,0,0,11.377,14.754Zm0-8.065A2.688,2.688,0,1,1,8.688,9.377,2.7,2.7,0,0,1,11.377,6.688Z" transform="translate(-0.711 -4)" fill="#5c719c"/>
      <path id="Path_1848" data-name="Path 1848" d="M23.7,17.721a5.832,5.832,0,0,0-.081-.847l1.532-1.358-1.344-2.325-1.949.659A4.9,4.9,0,0,0,20.41,13l-.4-2H17.318l-.4,2a4.9,4.9,0,0,0-1.452.847l-1.949-.659L12.17,15.516,13.7,16.874a5.831,5.831,0,0,0-.081.847,5.831,5.831,0,0,0,.081.847L12.17,19.925l1.344,2.325,1.949-.659a4.9,4.9,0,0,0,1.452.847l.4,2h2.688l.4-2a4.9,4.9,0,0,0,1.452-.847l1.949.659,1.344-2.325-1.532-1.358A5.832,5.832,0,0,0,23.7,17.721Zm-5.041,2.688a2.688,2.688,0,1,1,2.688-2.688A2.7,2.7,0,0,1,18.662,20.409Z" transform="translate(1.24 -1.591)" fill="#5c719c"/>
    </g>
  </g>
</svg>
