<svg id="ic-batch" xmlns="http://www.w3.org/2000/svg" width="24" height="24" viewBox="0 0 24 24">
  <g id="Group_400" data-name="Group 400">
    <path id="Path_1712" data-name="Path 1712" d="M0,0H24V24H0Z" fill="none"/>
  </g>
  <g id="Group_402" data-name="Group 402">
    <g id="Group_401" data-name="Group 401">
      <path id="Path_1713" data-name="Path 1713" d="M13.02,19.93v2.02a9.949,9.949,0,0,0,5.32-2.21l-1.42-1.43a7.941,7.941,0,0,1-3.9,1.62Z" fill="#3e9dd2"/>
      <path id="Path_1714" data-name="Path 1714" d="M4.03,12a8.015,8.015,0,0,1,6.95-7.93V2.05a10.006,10.006,0,0,0,0,19.9V19.93A8.015,8.015,0,0,1,4.03,12Z" fill="#3e9dd2"/>
      <path id="Path_1715" data-name="Path 1715" d="M19.95,11h2.02a9.949,9.949,0,0,0-2.21-5.32L18.33,7.11A7.868,7.868,0,0,1,19.95,11Z" fill="#3e9dd2"/>
      <path id="Path_1716" data-name="Path 1716" d="M18.34,4.26a9.981,9.981,0,0,0-5.32-2.21V4.07a7.941,7.941,0,0,1,3.9,1.62Z" fill="#3e9dd2"/>
      <path id="Path_1717" data-name="Path 1717" d="M18.33,16.9l1.43,1.42A9.949,9.949,0,0,0,21.97,13H19.95A7.941,7.941,0,0,1,18.33,16.9Z" fill="#3e9dd2"/>
      <path id="Path_1718" data-name="Path 1718" d="M16,11.1a4,4,0,1,0-8,0q0,2.49,4,5.9Q16.005,13.595,16,11.1ZM12,12a1.07,1.07,0,1,1,1.07-1.07A1.07,1.07,0,0,1,12,12Z" fill="#3e9dd2"/>
    </g>
  </g>
</svg>
