<svg xmlns="http://www.w3.org/2000/svg" width="24" height="24" viewBox="0 0 24 24">
  <g id="ic-calendar" transform="translate(-5197 -3508)">
    <g id="calendar_today_black_24dp" transform="translate(5200 3511)">
      <path id="Path_709" data-name="Path 709" d="M0,0H18V18H0Z" fill="none"/>
      <path id="Path_710" data-name="Path 710" d="M15.5,2.5h-.75V1h-1.5V2.5H5.75V1H4.25V2.5H3.5A1.5,1.5,0,0,0,2,4V16a1.5,1.5,0,0,0,1.5,1.5h12A1.5,1.5,0,0,0,17,16V4a1.5,1.5,0,0,0-1.5-1.5Zm0,13.5H3.5V7.75h12Zm0-9.75H3.5V4h12Z" transform="translate(-0.5 -0.25)" fill="#0070c0"/>
    </g>
    <rect id="Rectangle_659" data-name="Rectangle 659" width="24" height="24" transform="translate(5197 3508)" fill="none"/>
  </g>
</svg>
