<svg id="ic-detail" xmlns="http://www.w3.org/2000/svg" width="24" height="24" viewBox="0 0 24 24">
  <g id="Group_419" data-name="Group 419">
    <rect id="Rectangle_574" data-name="Rectangle 574" width="24" height="24" fill="none"/>
  </g>
  <g id="Group_421" data-name="Group 421">
    <g id="Group_420" data-name="Group 420">
      <path id="Path_1740" data-name="Path 1740" d="M5,5H7V8H17V5h2v5h2V5a2.006,2.006,0,0,0-2-2H14.82A2.988,2.988,0,0,0,9.18,3H5A2.006,2.006,0,0,0,3,5V19a2.006,2.006,0,0,0,2,2h5V19H5Zm7-2a1,1,0,1,1-1,1A1,1,0,0,1,12,3Z" fill="#0070c0"/>
      <path id="Path_1741" data-name="Path 1741" d="M20.3,18.9a4.815,4.815,0,0,0,.7-2.4A4.5,4.5,0,1,0,16.5,21a4.815,4.815,0,0,0,2.4-.7L21.6,23,23,21.6Zm-3.8.1a2.476,2.476,0,1,1,1.775-.725A2.476,2.476,0,0,1,16.5,19Z" fill="#0070c0"/>
    </g>
  </g>
</svg>
