<svg id="ic-edit-upload-pic" xmlns="http://www.w3.org/2000/svg" width="28" height="28" viewBox="0 0 28 28">
  <path id="Path_1779" data-name="Path 1779" d="M0,0H28V28H0Z" fill="none"/>
  <path id="Path_1780" data-name="Path 1780" d="M20.662,23.162H4.333V6.832h10.5V4.5H4.333A2.34,2.34,0,0,0,2,6.832v16.33a2.34,2.34,0,0,0,2.333,2.333h16.33A2.34,2.34,0,0,0,23,23.162v-10.5H20.662Zm-9.086-3.7L9.29,16.711,6.082,20.829h12.83l-4.129-5.494ZM23,4.5V1H20.662V4.5h-3.5c.012.012,0,2.333,0,2.333h3.5V10.32c.012.012,2.333,0,2.333,0V6.832h3.5V4.5Z" transform="translate(0.337 0.168)" fill="#0070c0"/>
</svg>
