<svg id="ic-flow" xmlns="http://www.w3.org/2000/svg" width="24" height="24" viewBox="0 0 24 24">
  <path id="Path_1582" data-name="Path 1582" d="M0,0H24V24H0Z" fill="none"/>
  <path id="Path_1583" data-name="Path 1583" d="M17,16.99a5.964,5.964,0,0,0-2.95.8,4.082,4.082,0,0,1-2.05.6,3.812,3.812,0,0,1-2.05-.6,5.839,5.839,0,0,0-5.9,0,4.052,4.052,0,0,1-2.05.6v1.95a5.964,5.964,0,0,0,2.95-.8A4.052,4.052,0,0,1,7,18.94a3.866,3.866,0,0,1,2.05.6,5.839,5.839,0,0,0,5.9,0,4.082,4.082,0,0,1,2.05-.6,3.812,3.812,0,0,1,2.05.6,5.9,5.9,0,0,0,2.95.8V18.39a3.812,3.812,0,0,1-2.05-.6,5.964,5.964,0,0,0-2.95-.8Zm0-4.45a6.071,6.071,0,0,0-2.95.8,4.184,4.184,0,0,1-2.05.6,3.812,3.812,0,0,1-2.05-.6A5.869,5.869,0,0,0,7,12.54a5.973,5.973,0,0,0-2.95.8,4.153,4.153,0,0,1-2.05.6v1.95a6.071,6.071,0,0,0,2.95-.8,3.8,3.8,0,0,1,4.1,0,5.869,5.869,0,0,0,2.95.8,5.973,5.973,0,0,0,2.95-.8,3.8,3.8,0,0,1,4.1,0,5.9,5.9,0,0,0,2.95.8V13.94a3.812,3.812,0,0,1-2.05-.6A5.964,5.964,0,0,0,17,12.54Zm2.95-8.08a5.839,5.839,0,0,0-5.9,0,4.184,4.184,0,0,1-2.05.6,3.812,3.812,0,0,1-2.05-.6A5.973,5.973,0,0,0,7,3.66a5.869,5.869,0,0,0-2.95.8A4.052,4.052,0,0,1,2,5.06V6.99a6.071,6.071,0,0,0,2.95-.8A4.052,4.052,0,0,1,7,5.59a3.866,3.866,0,0,1,2.05.6,5.869,5.869,0,0,0,2.95.8,5.973,5.973,0,0,0,2.95-.8A4.184,4.184,0,0,1,17,5.59a3.812,3.812,0,0,1,2.05.6,5.9,5.9,0,0,0,2.95.8V5.04A3.985,3.985,0,0,1,19.95,4.46ZM17,8.09a6.071,6.071,0,0,0-2.95.8,3.8,3.8,0,0,1-4.1,0A5.869,5.869,0,0,0,7,8.09a5.973,5.973,0,0,0-2.95.8A3.812,3.812,0,0,1,2,9.49v1.95a6.071,6.071,0,0,0,2.95-.8A4.184,4.184,0,0,1,7,10.04a3.893,3.893,0,0,1,2.05.6,5.869,5.869,0,0,0,2.95.8,5.973,5.973,0,0,0,2.95-.8,4.184,4.184,0,0,1,2.05-.6,3.812,3.812,0,0,1,2.05.6,5.9,5.9,0,0,0,2.95.8V9.49a3.812,3.812,0,0,1-2.05-.6A5.964,5.964,0,0,0,17,8.09Z" fill="#3e9dd2"/>
</svg>
