<svg xmlns="http://www.w3.org/2000/svg" width="19" height="19" viewBox="0 0 19 19">
  <g id="ic-help" transform="translate(-4220 -1245)">
    <g id="ic-help-2" data-name="ic-help" transform="translate(-2.199 -4.709)">
      <path id="path3465" d="M242.978-319.021h-2.312v-2.312h2.312Z" transform="translate(3989.964 1585.951)" fill="#fff"/>
      <g id="g3467" transform="translate(4227.2 1250.709)">
        <path id="path3469" d="M-1.794-55.9H-4.033v-2.8l2.7-2.474a2.323,2.323,0,0,0,.764-1.733,2.351,2.351,0,0,0-2.348-2.348,2.351,2.351,0,0,0-2.348,2.348H-7.5A4.592,4.592,0,0,1-2.913-67.5a4.592,4.592,0,0,1,4.587,4.587A4.6,4.6,0,0,1,.182-59.529L-1.794-57.72Z" transform="translate(7.5 67.5)" fill="#fff"/>
      </g>
    </g>
    <rect id="Rectangle_658" data-name="Rectangle 658" width="19" height="19" transform="translate(4220 1245)" fill="none"/>
  </g>
</svg>
