<svg id="ic-help-circle" xmlns="http://www.w3.org/2000/svg" width="38" height="38" viewBox="0 0 38 38">
  <path id="Path_1730" data-name="Path 1730" d="M0,0H38V38H0Z" fill="none"/>
  <path id="Path_1731" data-name="Path 1731" d="M18.007,2A16.007,16.007,0,1,0,34.014,18.007,16.007,16.007,0,0,0,18.007,2Zm1.6,27.212h-3.2v-3.2h3.2ZM22.92,16.807l-1.44,1.472a5.449,5.449,0,0,0-1.873,4.53h-3.2v-.8a6.443,6.443,0,0,1,1.873-4.53l1.985-2.017a3.13,3.13,0,0,0,.944-2.257,3.2,3.2,0,0,0-6.4,0H11.6a6.4,6.4,0,0,1,12.806,0,5.093,5.093,0,0,1-1.485,3.6Z" transform="translate(0.993 0.993)" fill="#0070c0"/>
</svg>
