<svg id="ic-hold" xmlns="http://www.w3.org/2000/svg" width="24" height="24" viewBox="0 0 24 24">
  <path id="Path_1719" data-name="Path 1719" d="M0,0H24V24H0Z" fill="none"/>
  <path id="Path_1720" data-name="Path 1720" d="M12,11c1.33,0,4,.67,4,2v.16a5.268,5.268,0,0,1-8,0V13C8,11.67,10.67,11,12,11Zm0-1a2,2,0,1,1,2-2A2.006,2.006,0,0,1,12,10Zm6,.2a6,6,0,1,0-12,0c0,2.34,1.95,5.44,6,9.14C16.05,15.64,18,12.54,18,10.2ZM12,2a7.955,7.955,0,0,1,8,8.2q0,4.98-8,11.8Q4.005,15.175,4,10.2A7.955,7.955,0,0,1,12,2Z" fill="#87adf9"/>
</svg>
