<svg id="ic-image-add" xmlns="http://www.w3.org/2000/svg" width="44.49" height="44.49" viewBox="0 0 44.49 44.49">
  <path id="Path_1779" data-name="Path 1779" d="M0,0H44.49V44.49H0Z" fill="none"/>
  <path id="Path_1780" data-name="Path 1780" d="M31.66,36.221H5.708V10.269H22.391V6.561H5.708A3.718,3.718,0,0,0,2,10.269V36.221a3.718,3.718,0,0,0,3.708,3.708H31.66a3.718,3.718,0,0,0,3.708-3.708V19.538H31.66ZM17.219,30.345,13.586,25.97l-5.1,6.544H28.88l-6.562-8.731ZM35.368,6.561V1H31.66V6.561H26.1c.019.019,0,3.708,0,3.708h5.56v5.543c.019.019,3.708,0,3.708,0V10.269h5.561V6.561Z" transform="translate(1.708 0.854)" fill="#f29f3d"/>
</svg>
