<svg id="ic-irrigated-search" xmlns="http://www.w3.org/2000/svg" width="24" height="24" viewBox="0 0 24 24">
  <g id="Group_391" data-name="Group 391">
    <rect id="Rectangle_553" data-name="Rectangle 553" width="24" height="24" fill="none"/>
  </g>
  <g id="Group_393" data-name="Group 393">
    <g id="Group_392" data-name="Group 392">
      <path id="Path_1699" data-name="Path 1699" d="M22,20.59,17.31,15.9A7.9,7.9,0,0,0,19,11,8,8,0,0,0,3.07,10H5.09a6,6,0,1,1,.46,3.5H3.4A8.012,8.012,0,0,0,11,19a7.9,7.9,0,0,0,4.9-1.69L20.59,22Z" fill="#3e9dd2"/>
      <path id="Path_1700" data-name="Path 1700" d="M8.43,9.69,9.65,15h1.64l1.26-3.78.95,2.28h2V12h-1L13.25,9H11.71l-1.12,3.37L9.35,7H7.7L6.45,11H1v1.5H7.55Z" fill="#3e9dd2"/>
    </g>
  </g>
</svg>
