<svg id="ic-jointname" xmlns="http://www.w3.org/2000/svg" width="28" height="28" viewBox="0 0 28 28">
  <path id="Path_1799" data-name="Path 1799" d="M0,0H28V28H0Z" fill="none"/>
  <path id="Path_1800" data-name="Path 1800" d="M10.167,15.208C7.437,15.208,2,16.573,2,19.292v2.042H18.333V19.292C18.333,16.573,12.9,15.208,10.167,15.208ZM4.73,19a11.249,11.249,0,0,1,5.437-1.458A11.249,11.249,0,0,1,15.6,19Zm5.437-5.833A4.083,4.083,0,1,0,6.083,9.083a4.083,4.083,0,0,0,4.084,4.084Zm0-5.833a1.746,1.746,0,1,1-1.238.511,1.75,1.75,0,0,1,1.238-.511Zm8.213,7.945a4.891,4.891,0,0,1,2.287,4.013v2.042h4.667V19.292c0-2.357-4.084-3.7-6.954-4.014Zm-1.213-2.112a4.083,4.083,0,0,0,0-8.167,4.02,4.02,0,0,0-1.75.408,6.371,6.371,0,0,1,0,7.35,4.02,4.02,0,0,0,1.75.409Z" transform="translate(0.333 0.833)" fill="#3e9dd2"/>
</svg>
