<svg id="ic-land-mark" xmlns="http://www.w3.org/2000/svg" width="24" height="24" viewBox="0 0 24 24">
  <path id="Path_1655" data-name="Path 1655" d="M0,0H24V24H0Z" fill="none"/>
  <path id="Path_1656" data-name="Path 1656" d="M20,1V4h3V6H20V9H18V6H15V4h3V1ZM12,13a2,2,0,1,1,2-2A2,2,0,0,1,12,13Zm1-9.94V5.08A6.53,6.53,0,0,0,12,5a5.954,5.954,0,0,0-6,6.2c0,2.34,1.95,5.44,6,9.14,4.05-3.7,6-6.79,6-9.14V11h2v.2q0,4.98-8,11.8Q4.005,16.175,4,11.2A7.955,7.955,0,0,1,12,3a8.262,8.262,0,0,1,1,.06Z" fill="#3e9dd2"/>
</svg>
