<svg id="ic-land-check-manage" xmlns="http://www.w3.org/2000/svg" width="24" height="24" viewBox="0 0 24 24">
  <path id="Path_1855" data-name="Path 1855" d="M0,0H24V24H0Z" fill="none"/>
  <path id="Path_1856" data-name="Path 1856" d="M6.21,13.97l1.2,2.07a.306.306,0,0,0,.37.13l1.49-.6a4.244,4.244,0,0,0,1.01.59l.22,1.59a.31.31,0,0,0,.3.25h2.4a.31.31,0,0,0,.3-.26l.22-1.59a4.45,4.45,0,0,0,1.01-.59l1.49.6a.306.306,0,0,0,.37-.13l1.2-2.07a.308.308,0,0,0-.07-.39l-1.27-.99a3.77,3.77,0,0,0,.04-.58,5.845,5.845,0,0,0-.04-.59l1.27-.99a.306.306,0,0,0,.07-.39l-1.2-2.07a.306.306,0,0,0-.37-.13l-1.49.6a4.244,4.244,0,0,0-1.01-.59L13.5,6.25A.31.31,0,0,0,13.2,6H10.8a.31.31,0,0,0-.3.26l-.22,1.59a4.21,4.21,0,0,0-1.01.58l-1.49-.6a.306.306,0,0,0-.37.13l-1.2,2.07a.308.308,0,0,0,.07.39l1.27.99A3.915,3.915,0,0,0,7.5,12a5.845,5.845,0,0,0,.04.59l-1.27.99a.306.306,0,0,0-.06.39ZM12,10.29A1.71,1.71,0,1,1,10.29,12,1.716,1.716,0,0,1,12,10.29ZM19,3H5A2,2,0,0,0,3,5V19a2,2,0,0,0,2,2H19a2,2,0,0,0,2-2V5A2,2,0,0,0,19,3Zm0,16H5V5H19Z" fill="#fff"/>
</svg>
