<svg id="ic-land-check" xmlns="http://www.w3.org/2000/svg" width="24" height="24" viewBox="0 0 24 24">
  <g id="Group_322" data-name="Group 322">
    <rect id="Rectangle_506" data-name="Rectangle 506" width="24" height="24" fill="none"/>
  </g>
  <g id="Group_324" data-name="Group 324">
    <g id="Group_323" data-name="Group 323">
      <path id="Path_1661" data-name="Path 1661" d="M12,1,3,5v6c0,5.55,3.84,10.74,9,12,5.16-1.26,9-6.45,9-12V5Zm7,10a10.75,10.75,0,0,1-1.38,5.21l-1.45-1.45a5,5,0,1,0-1.42,1.42l1.72,1.72A9.515,9.515,0,0,1,12,20.94,10.5,10.5,0,0,1,5,11V6.3l7-3.11L19,6.3Zm-7,4a3,3,0,1,1,3-3A3,3,0,0,1,12,15Z" fill="#3e9dd2"/>
    </g>
  </g>
</svg>
