<svg id="ic-manage" xmlns="http://www.w3.org/2000/svg" width="26" height="26" viewBox="0 0 26 26">
  <path id="Path_633" data-name="Path 633" d="M0,0H26V26H0Z" fill="none"/>
  <path id="Path_634" data-name="Path 634" d="M20.516,13.82a7.665,7.665,0,0,0,.065-1.018,6.259,6.259,0,0,0-.076-1.018l2.2-1.712a.532.532,0,0,0,.13-.661l-2.08-3.6a.529.529,0,0,0-.639-.238l-2.59,1.04A7.654,7.654,0,0,0,15.77,5.6l-.39-2.752a.524.524,0,0,0-.52-.444H10.7a.513.513,0,0,0-.509.444L9.8,5.6A7.823,7.823,0,0,0,8.045,6.615l-2.59-1.04a.517.517,0,0,0-.639.238L2.747,9.41a.493.493,0,0,0,.13.661l2.2,1.712a6.028,6.028,0,0,0-.022,2.037l-2.2,1.712a.532.532,0,0,0-.13.661l2.08,3.6a.529.529,0,0,0,.639.238l2.59-1.04a7.654,7.654,0,0,0,1.755,1.018l.39,2.752a.533.533,0,0,0,.52.444H14.86a.5.5,0,0,0,.509-.444l.39-2.752a7.431,7.431,0,0,0,1.755-1.018l2.59,1.04a.517.517,0,0,0,.639-.238l2.08-3.6a.5.5,0,0,0-.13-.661ZM12.78,16.7a3.9,3.9,0,1,1,3.9-3.9A3.9,3.9,0,0,1,12.78,16.7Z" transform="translate(0.222 0.2)" fill="#3e9dd2"/>
</svg>
