<svg id="ic-more-worker" xmlns="http://www.w3.org/2000/svg" width="24" height="24" viewBox="0 0 24 24">
  <g id="Group_385" data-name="Group 385">
    <rect id="Rectangle_543" data-name="Rectangle 543" width="24" height="24" fill="none"/>
    <rect id="Rectangle_544" data-name="Rectangle 544" width="24" height="24" fill="none"/>
  </g>
  <g id="Group_387" data-name="Group 387">
    <g id="Group_386" data-name="Group 386">
      <path id="Path_1694" data-name="Path 1694" d="M22,9V7H20V9H18v2h2v2h2V11h2V9Z" fill="#3e9dd2"/>
      <path id="Path_1695" data-name="Path 1695" d="M8,12A4,4,0,1,0,4,8,4,4,0,0,0,8,12ZM8,6A2,2,0,1,1,6,8,2,2,0,0,1,8,6Z" fill="#3e9dd2"/>
      <path id="Path_1696" data-name="Path 1696" d="M8,13c-2.67,0-8,1.34-8,4v3H16V17C16,14.34,10.67,13,8,13Zm6,5H2v-.99C2.2,16.29,5.3,15,8,15s5.8,1.29,6,2Z" fill="#3e9dd2"/>
      <path id="Path_1697" data-name="Path 1697" d="M12.51,4.05a5.981,5.981,0,0,1,0,7.9,3.98,3.98,0,0,0,0-7.9Z" fill="#3e9dd2"/>
      <path id="Path_1698" data-name="Path 1698" d="M16.53,13.83A4.237,4.237,0,0,1,18,17v3h2V17C20,15.55,18.41,14.49,16.53,13.83Z" fill="#3e9dd2"/>
    </g>
  </g>
</svg>
