<svg id="ic-noinfo" xmlns="http://www.w3.org/2000/svg" width="100" height="100" viewBox="0 0 100 100">
  <path id="Path_1653" data-name="Path 1653" d="M0,0H100V100H0Z" fill="none"/>
  <path id="Path_1654" data-name="Path 1654" d="M37.541,60.45a4.151,4.151,0,0,1-2.973-1.211,3.963,3.963,0,0,1-1.214-2.964,4.122,4.122,0,0,1,4.1-4.175h.084a4.07,4.07,0,0,1,4.146,4.133A4.2,4.2,0,0,1,40.472,59.2,3.934,3.934,0,0,1,37.541,60.45Zm-3.685-15.28a9.342,9.342,0,0,1,1.214-4.843,20.869,20.869,0,0,1,4.187-4.676,16.023,16.023,0,0,0,2.554-2.755,4.565,4.565,0,0,0,.8-2.672,4.2,4.2,0,0,0-1.34-3.089,5,5,0,0,0-3.559-1.252,6.168,6.168,0,0,0-4.02,1.252,5.016,5.016,0,0,0-1.675,4.091H24.937A12.355,12.355,0,0,1,29,22a12.619,12.619,0,0,1,8.5-3.3,14.5,14.5,0,0,1,6.574,1.461,10.746,10.746,0,0,1,4.4,4.008,10.255,10.255,0,0,1,1.591,5.636,9.858,9.858,0,0,1-1.3,5.219,20.261,20.261,0,0,1-3.727,4.551,14.675,14.675,0,0,0-2.722,3.215,6.853,6.853,0,0,0-.754,3.382v1.753H33.814V45.169Zm28.768-8.934c0-15.155-11.1-25.885-25.125-25.885S12.375,21.08,12.375,36.235C12.375,46,20.54,58.947,37.5,74.394,54.458,58.947,62.624,46,62.624,36.235ZM37.5,2C55.087,2,71,15.443,71,36.235Q71,57.026,37.5,85.5,4.021,57.005,4,36.235C4,15.443,19.912,2,37.5,2Z" transform="translate(12.501 6.25)" fill="#dfdfdf"/>
</svg>
