<svg xmlns="http://www.w3.org/2000/svg" width="26" height="26" viewBox="0 0 26 26">
  <g id="ic-password-reset" transform="translate(0.648 0.17)">
    <rect id="Rectangle_406" data-name="Rectangle 406" width="26" height="26" transform="translate(-0.648 -0.17)" fill="none"/>
    <path id="Path_1543" data-name="Path 1543" d="M13.3,3a9.2,9.2,0,0,0-9.22,9.182c0,.061.01.122.01.194L2.2,10.5.76,11.938,5.1,16.264l4.344-4.326L8,10.5,6.138,12.356c0-.061-.01-.112-.01-.173A7.172,7.172,0,1,1,8.3,17.294L6.845,18.733A9.2,9.2,0,1,0,13.3,3Zm2.049,8.162v-1.02a2.05,2.05,0,0,0-4.1,0v1.02a1.025,1.025,0,0,0-1.024,1.02v3.061a1.025,1.025,0,0,0,1.024,1.02h4.1a1.025,1.025,0,0,0,1.024-1.02V12.182a1.025,1.025,0,0,0-1.025-1.02Zm-1.024,0h-2.05v-1.02a1.025,1.025,0,0,1,2.049,0Z" transform="translate(0.385 0.262)" fill="#3e9dd2"/>
  </g>
</svg>
