<svg id="ic-pics-modal" xmlns="http://www.w3.org/2000/svg" width="28.006" height="28.006" viewBox="0 0 28.006 28.006">
  <path id="Path_1818" data-name="Path 1818" d="M0,0H28.006V28.006H0Z" fill="none"/>
  <path id="Path_1819" data-name="Path 1819" d="M2.334,6.668H0V12.5H.012L0,23a2.341,2.341,0,0,0,2.334,2.334h21V23h-21Zm5.835,10.5H24.5l-4.084-5.251L17.5,15.431l-4.084-5.263Zm17.5-12.836H16.337L14,2H7A2.331,2.331,0,0,0,4.679,4.334l-.012,14A2.341,2.341,0,0,0,7,20.671H25.672a2.341,2.341,0,0,0,2.334-2.334V6.668a2.341,2.341,0,0,0-2.334-2.334Zm0,14H7v-14h6.033L14.68,5.979l.688.688h10.3Z" transform="translate(0 0.334)" fill="#0070c0"/>
</svg>
