<svg id="ic-pin-blue" xmlns="http://www.w3.org/2000/svg" width="20" height="20" viewBox="0 0 20 20">
  <path id="Path_1638" data-name="Path 1638" d="M0,0H20V20H0Z" fill="none"/>
  <path id="Path_1639" data-name="Path 1639" d="M10.878,3.649a4.153,4.153,0,0,1,4.2,4.246c0,1.781-1.444,3.85-4.2,6.035-2.754-2.185-4.2-4.263-4.2-6.035a4.153,4.153,0,0,1,4.2-4.246m0-1.649A5.8,5.8,0,0,0,5,7.9q0,3.859,5.878,8.121,5.882-4.254,5.878-8.121A5.8,5.8,0,0,0,10.878,2Z" transform="translate(-0.878 -0.351)" fill="#29abe2"/>
  <path id="Path_1640" data-name="Path 1640" d="M10.878,7a1.649,1.649,0,1,0,1.679,1.649A1.669,1.669,0,0,0,10.878,7ZM5,17.718H16.755v1.649H5Z" transform="translate(-0.878 -1.016)" fill="#29abe2"/>
</svg>
