<svg id="ic-position" xmlns="http://www.w3.org/2000/svg" width="28" height="28" viewBox="0 0 28 28">
  <path id="Path_1964" data-name="Path 1964" d="M0,0H28V28H0Z" fill="none"/>
  <path id="Path_1965" data-name="Path 1965" d="M13.166,4.333A5.817,5.817,0,0,1,19,10.341c0,2.52-2.006,5.448-5.833,8.539-3.826-3.091-5.833-6.031-5.833-8.539a5.817,5.817,0,0,1,5.833-6.007m0-2.333A8.128,8.128,0,0,0,5,10.341q0,5.459,8.166,11.49,8.171-6.019,8.166-11.49A8.128,8.128,0,0,0,13.166,2Z" transform="translate(0.833 0.333)" fill="#0070c0"/>
  <path id="Path_1966" data-name="Path 1966" d="M13.166,7A2.333,2.333,0,1,0,15.5,9.333,2.333,2.333,0,0,0,13.166,7ZM5,22.165H21.331V24.5H5Z" transform="translate(0.833 1.166)" fill="#0070c0"/>
</svg>
