<svg id="ic-pin-use" xmlns="http://www.w3.org/2000/svg" width="28" height="28" viewBox="0 0 28 28">
  <path id="Path_1971" data-name="Path 1971" d="M0,0H28V28H0Z" fill="none"/>
  <path id="Path_1972" data-name="Path 1972" d="M13.331,1A9.344,9.344,0,0,0,4,10.333c0,6.5,8.118,15.563,8.468,15.948l.863.957.863-.957c.35-.385,8.468-9.45,8.468-15.948A9.344,9.344,0,0,0,13.331,1Zm0,22.714c-2.543-3.045-7-9.251-7-13.381a7,7,0,0,1,14,0c0,4.468-4.957,10.92-7,13.381Zm-1.785-10.85L9.494,10.8,7.837,12.456l3.709,3.71,7.01-7.011L16.912,7.5Z" transform="translate(0.669 0.167)" fill="#f29f3d"/>
</svg>
