<svg id="ic-pin-user" xmlns="http://www.w3.org/2000/svg" width="28" height="28" viewBox="0 0 28 28">
  <path id="Path_1969" data-name="Path 1969" d="M0,0H28V28H0Z" fill="none"/>
  <path id="Path_1970" data-name="Path 1970" d="M13.331,12.5c1.551,0,4.666.782,4.666,2.333v.187a6.144,6.144,0,0,1-9.331,0v-.187C8.666,13.281,11.78,12.5,13.331,12.5Zm0-1.167A2.333,2.333,0,1,1,15.664,9a2.333,2.333,0,0,1-2.333,2.333Zm7,.233a7,7,0,0,0-14,0c0,2.73,2.274,6.346,7,10.662,4.724-4.316,7-7.928,7-10.662ZM13.331,2a9.279,9.279,0,0,1,9.331,9.566q0,5.809-9.331,13.765Q4.006,17.369,4,11.566A9.279,9.279,0,0,1,13.331,2Z" transform="translate(0.669 0.334)" fill="#f29f3d"/>
</svg>
