<svg id="ic-river" xmlns="http://www.w3.org/2000/svg" width="24" height="24" viewBox="0 0 24 24">
  <g id="Group_403" data-name="Group 403">
    <path id="Path_1721" data-name="Path 1721" d="M0,0H24V24H0Z" fill="none"/>
  </g>
  <g id="Group_405" data-name="Group 405">
    <g id="Group_404" data-name="Group 404">
      <path id="Path_1722" data-name="Path 1722" d="M21.98,14ZM5.35,13c1.19,0,1.42,1,3.33,1,1.95,0,2.09-1,3.33-1,1.19,0,1.42,1,3.33,1,1.95,0,2.09-1,3.33-1,1.19,0,1.4.98,3.31,1V12c-1.19,0-1.42-1-3.33-1-1.95,0-2.09,1-3.33,1-1.19,0-1.42-1-3.33-1-1.95,0-2.09,1-3.33,1-1.19,0-1.42-1-3.33-1C3.38,11,3.24,12,2,12v2C3.9,14,4.17,13,5.35,13Zm13.32,2c-1.95,0-2.09,1-3.33,1-1.19,0-1.42-1-3.33-1-1.95,0-2.1,1-3.34,1s-1.38-1-3.33-1S3.24,16,2,16v2c1.95,0,2.11-1,3.34-1s1.38,1,3.33,1,2.1-1,3.34-1c1.19,0,1.42,1,3.33,1,1.94,0,2.09-1,3.33-1,1.19,0,1.42,1,3.33,1V16C20.76,16,20.62,15,18.67,15ZM5.35,9c1.19,0,1.42,1,3.33,1,1.95,0,2.09-1,3.33-1,1.19,0,1.42,1,3.33,1,1.95,0,2.09-1,3.33-1,1.19,0,1.4.98,3.31,1V8c-1.19,0-1.42-1-3.33-1-1.95,0-2.09,1-3.33,1-1.19,0-1.42-1-3.33-1C10.04,7,9.9,8,8.66,8,7.47,8,7.24,7,5.33,7,3.38,7,3.24,8,2,8v2C3.9,10,4.17,9,5.35,9Z" fill="#3e9dd2"/>
    </g>
  </g>
</svg>
