<svg id="ic-route-blue" xmlns="http://www.w3.org/2000/svg" width="24" height="24" viewBox="0 0 24 24">
  <path id="Path_1582" data-name="Path 1582" d="M0,0H24V24H0Z" fill="none"/>
  <path id="Path_1583" data-name="Path 1583" d="M14.976,15.192a5.159,5.159,0,0,0-2.552.692,3.531,3.531,0,0,1-1.773.519,3.3,3.3,0,0,1-1.773-.519,5.051,5.051,0,0,0-5.1,0A3.505,3.505,0,0,1,2,16.4V18.09A5.159,5.159,0,0,0,4.552,17.4a3.505,3.505,0,0,1,1.773-.519A3.344,3.344,0,0,1,8.1,17.4a5.051,5.051,0,0,0,5.1,0,3.531,3.531,0,0,1,1.773-.519,3.3,3.3,0,0,1,1.773.519,5.1,5.1,0,0,0,2.552.692V16.4a3.3,3.3,0,0,1-1.773-.519A5.159,5.159,0,0,0,14.976,15.192Zm0-3.85a5.252,5.252,0,0,0-2.552.692,3.62,3.62,0,0,1-1.773.519,3.3,3.3,0,0,1-1.773-.519,5.077,5.077,0,0,0-2.552-.692,5.167,5.167,0,0,0-2.552.692A3.592,3.592,0,0,1,2,12.553V14.24a5.252,5.252,0,0,0,2.552-.692,3.289,3.289,0,0,1,3.547,0,5.077,5.077,0,0,0,2.552.692,5.167,5.167,0,0,0,2.552-.692,3.289,3.289,0,0,1,3.547,0,5.1,5.1,0,0,0,2.552.692V12.553a3.3,3.3,0,0,1-1.773-.519A5.159,5.159,0,0,0,14.976,11.342Zm2.552-6.99a5.051,5.051,0,0,0-5.1,0,3.62,3.62,0,0,1-1.773.519,3.3,3.3,0,0,1-1.773-.519A5.167,5.167,0,0,0,6.325,3.66a5.077,5.077,0,0,0-2.552.692A3.505,3.505,0,0,1,2,4.871v1.67a5.252,5.252,0,0,0,2.552-.692A3.505,3.505,0,0,1,6.325,5.33,3.344,3.344,0,0,1,8.1,5.849a5.077,5.077,0,0,0,2.552.692A5.167,5.167,0,0,0,13.2,5.849a3.62,3.62,0,0,1,1.773-.519,3.3,3.3,0,0,1,1.773.519,5.1,5.1,0,0,0,2.552.692V4.854A3.448,3.448,0,0,1,17.528,4.352Zm-2.552,3.14a5.252,5.252,0,0,0-2.552.692,3.289,3.289,0,0,1-3.547,0,5.077,5.077,0,0,0-2.552-.692,5.167,5.167,0,0,0-2.552.692A3.3,3.3,0,0,1,2,8.7V10.39A5.252,5.252,0,0,0,4.552,9.7a3.62,3.62,0,0,1,1.773-.519A3.368,3.368,0,0,1,8.1,9.7a5.077,5.077,0,0,0,2.552.692A5.167,5.167,0,0,0,13.2,9.7a3.62,3.62,0,0,1,1.773-.519A3.3,3.3,0,0,1,16.75,9.7a5.1,5.1,0,0,0,2.552.692V8.7a3.3,3.3,0,0,1-1.773-.519,5.159,5.159,0,0,0-2.552-.692Z" transform="translate(1.349 1.125)" fill="#29abe2"/>
</svg>
