<svg id="ic-return" xmlns="http://www.w3.org/2000/svg" width="22" height="22" viewBox="0 0 22 22">
  <path id="Path_1734" data-name="Path 1734" d="M0,0H22V22H0Z" fill="none"/>
  <path id="Path_1735" data-name="Path 1735" d="M11,3.727V1L7.5,4.636,11,8.273V5.545A5.359,5.359,0,0,1,16.25,11a5.5,5.5,0,0,1-.613,2.545l1.278,1.327A7.416,7.416,0,0,0,18,11a7.138,7.138,0,0,0-7-7.273Zm0,12.727A5.359,5.359,0,0,1,5.75,11a5.5,5.5,0,0,1,.612-2.545L5.085,7.127A7.416,7.416,0,0,0,4,11a7.138,7.138,0,0,0,7,7.273V21l3.5-3.636L11,13.727Z" fill="#c66841"/>
</svg>
