<svg id="ic-station-blue" xmlns="http://www.w3.org/2000/svg" width="24" height="24" viewBox="0 0 24 24">
  <g id="Group_291" data-name="Group 291">
    <rect id="Rectangle_472" data-name="Rectangle 472" width="24" height="24" fill="none"/>
  </g>
  <g id="Group_293" data-name="Group 293">
    <g id="Group_292" data-name="Group 292">
      <path id="Path_1605" data-name="Path 1605" d="M5,5H7V8H17V5h2v5h2V5a2.006,2.006,0,0,0-2-2H14.82A2.988,2.988,0,0,0,9.18,3H5A2.006,2.006,0,0,0,3,5V19a2.006,2.006,0,0,0,2,2h6V19H5Zm7-2a1,1,0,1,1-1,1A1,1,0,0,1,12,3Z" fill="#29abe2"/>
      <path id="Path_1606" data-name="Path 1606" d="M21,11.5,15.51,17,12.5,14,11,15.5,15.51,20l6.99-7Z" fill="#29abe2"/>
    </g>
  </g>
</svg>
