<svg xmlns="http://www.w3.org/2000/svg" width="30" height="30" viewBox="0 0 30 30">
  <g id="ic-tools" transform="translate(-4231 -3933)">
    <g id="Layer_x0020_1" transform="translate(4222.556 3924.553)">
      <g id="_258020488" transform="translate(12.444 12.447)">
        <path id="_258021608" d="M18.59,31.3a.775.775,0,0,1,.4.11,9.283,9.283,0,0,0,2.393,1.006.769.769,0,0,1,.57.737l.011,1.293a.233.233,0,0,0,.229.23l2.939.025a.225.225,0,0,0,.166-.068.228.228,0,0,0,.067-.165l-.012-1.424a.565.565,0,0,1,.439-.558,9.048,9.048,0,0,0,1.163-.354L24.364,29.54a6.12,6.12,0,0,1-5-1.753,5.954,5.954,0,1,1,8.42-8.419,6.119,6.119,0,0,1,1.753,5l2.592,2.592a9.022,9.022,0,0,0,.354-1.164.564.564,0,0,1,.553-.439h0l1.424.012a.228.228,0,0,0,.166-.068.232.232,0,0,0,.069-.167L34.67,22.2a.233.233,0,0,0-.23-.23l-1.293-.011a.769.769,0,0,1-.737-.569,9.253,9.253,0,0,0-1.01-2.4.767.767,0,0,1,.113-.936l.893-.893a.231.231,0,0,0,0-.327l-2.1-2.1a.231.231,0,0,0-.327,0l-.893.892a.766.766,0,0,1-.936.113,9.255,9.255,0,0,0-2.393-1.006.768.768,0,0,1-.57-.737l-.01-1.3a.232.232,0,0,0-.229-.23l-2.939-.025h0a.233.233,0,0,0-.232.234l.011,1.266a.761.761,0,0,1-.577.749,8.916,8.916,0,0,0-2.362.961.763.763,0,0,1-.926-.116L17,14.618a.231.231,0,0,0-.164-.068h0a.229.229,0,0,0-.163.068l-2.054,2.054a.231.231,0,0,0,0,.327l.923.923a.763.763,0,0,1,.116.926,8.892,8.892,0,0,0-.96,2.361.761.761,0,0,1-.743.577h-.006l-1.267-.011h0a.232.232,0,0,0-.232.234l.025,2.938a.232.232,0,0,0,.229.23L14,25.188a.769.769,0,0,1,.737.569A9.259,9.259,0,0,0,15.74,28.15a.767.767,0,0,1-.113.936l-.892.893a.231.231,0,0,0,0,.327l2.1,2.1a.23.23,0,0,0,.164.068h0a.229.229,0,0,0,.163-.068l.892-.892a.76.76,0,0,1,.539-.223Z" transform="translate(-12.444 -12.447)" fill="#3e9dd2" fill-rule="evenodd"/>
        <path id="_258022896" d="M68.365,70.319a.267.267,0,0,1,.189.078l7.129,7.13a1.3,1.3,0,0,0,1.839-1.839l-7.131-7.13a.267.267,0,0,1-.077-.212l.2-2.275L68.15,63.706l-1.836.492,1.054,1.054a1.5,1.5,0,0,1-1.06,2.56h0a1.488,1.488,0,0,1-1.06-.44l-1.054-1.055L63.7,68.154l2.365,2.365,2.278-.2Z" transform="translate(-56.02 -56.026)" fill="#3e9dd2" fill-rule="evenodd"/>
      </g>
    </g>
    <rect id="Rectangle_660" data-name="Rectangle 660" width="30" height="30" transform="translate(4231 3933)" fill="none"/>
  </g>
</svg>
