<svg xmlns="http://www.w3.org/2000/svg" xmlns:xlink="http://www.w3.org/1999/xlink" width="30" height="30" viewBox="0 0 30 30">
  <defs>
    <clipPath id="clip-path">
      <rect id="Rectangle_407" data-name="Rectangle 407" width="14.808" height="28.444" fill="#3e9dd2"/>
    </clipPath>
  </defs>
  <g id="ic-taiwan" transform="translate(-5393 84)">
    <rect id="Rectangle_408" data-name="Rectangle 408" width="30" height="30" transform="translate(5393 -84)" fill="none"/>
    <g id="Group_265" data-name="Group 265" transform="translate(5400.596 -83.222)">
      <g id="Group_264" data-name="Group 264" clip-path="url(#clip-path)">
        <path id="Path_1550" data-name="Path 1550" d="M6.019,28.444l-.658-.511c-.076.1-.1.132-.123.158-.053.052-.11.1-.165.15-.043-.064-.111-.123-.124-.192a2.067,2.067,0,0,1-.058-1.207,1.009,1.009,0,0,0-.1-.585,10.987,10.987,0,0,0-.451-1.192,1.978,1.978,0,0,0-.855-.881,2.623,2.623,0,0,1-.681-.6,1.04,1.04,0,0,1-.262-.019A2.374,2.374,0,0,1,1.456,22.03a2.21,2.21,0,0,0-.1-.592,17.357,17.357,0,0,0-.56-1.7,1.929,1.929,0,0,0-.58-.718.465.465,0,0,1-.19-.568c.062-.233.068-.481.122-.716a8.536,8.536,0,0,1,.377-1.462,3.84,3.84,0,0,0,.018-1.809,1.67,1.67,0,0,1,.23-1.016,3.082,3.082,0,0,0,.186-.438,3.456,3.456,0,0,1,.179-.382c.308-.524.623-1.043.935-1.565a2.336,2.336,0,0,1,.174-.286A12.275,12.275,0,0,0,3.814,7.973a3.125,3.125,0,0,1,.381-.656A2.516,2.516,0,0,0,4.8,6.176a.306.306,0,0,1,.1-.184c.322-.234.457-.687.9-.776a.129.129,0,0,0,.076-.048A4.543,4.543,0,0,0,6.5,4.182a6.235,6.235,0,0,1,.578-1.249c.026-.043.072-.076.091-.122C7.576,1.8,8.524,1.669,9.413,1.452c.423-.1.824-.2.977-.692a1.176,1.176,0,0,1,.834-.728.638.638,0,0,1,.74.269A2.2,2.2,0,0,0,13.78,1.394c.293.024.452.083.445.414,0,.238.047.476.381.472.059,0,.119.066.2.116-.056.063-.089.133-.143.157a2.335,2.335,0,0,0-.989.921,1.349,1.349,0,0,0-.245.79,7.951,7.951,0,0,0,.34,1.4,1.3,1.3,0,0,1-.1.8c-.02.022-.063.043-.061.062.036.526-.5.822-.519,1.34a1.844,1.844,0,0,1-.674,1.22,1.471,1.471,0,0,0-.218.475,2.117,2.117,0,0,1-.193.43c-.144.193-.217.367-.038.57a.307.307,0,0,1-.011.437.807.807,0,0,0-.138.3q-.391,1.749-.768,3.5c-.042.2,0,.42-.057.611-.209.672-.45,1.333-.669,2a1.562,1.562,0,0,0-.06.418c-.011.254.02.516-.282.646-.053.023-.082.112-.113.174A7.283,7.283,0,0,1,9.178,20a5.168,5.168,0,0,0-.693,1.213A1.054,1.054,0,0,1,8.1,21.6c-.407.283-.81.522-.915,1.1-.08.437-.385.828-.508,1.263a9.54,9.54,0,0,0-.289,1.577c-.057.535-.029,1.078-.077,1.614a2.28,2.28,0,0,1-.228.535,1,1,0,0,0-.079.351,2.38,2.38,0,0,0,.071.411Z" fill="#3e9dd2"/>
      </g>
    </g>
  </g>
</svg>
