<svg xmlns="http://www.w3.org/2000/svg" xmlns:xlink="http://www.w3.org/1999/xlink" width="30" height="30" viewBox="0 0 30 30">
  <defs>
    <clipPath id="clip-path">
      <rect id="Rectangle_410" data-name="Rectangle 410" width="28.646" height="28.647" fill="#3e9dd2"/>
    </clipPath>
  </defs>
  <g id="ic-tia" transform="translate(-991 -13)">
    <rect id="Rectangle_411" data-name="Rectangle 411" width="30" height="30" transform="translate(991 13)" fill="none"/>
    <g id="Group_268" data-name="Group 268" transform="translate(992 14)">
      <g id="Group_267" data-name="Group 267" clip-path="url(#clip-path)">
        <path id="Path_1551" data-name="Path 1551" d="M14.323,0A14.323,14.323,0,1,0,28.646,14.323,14.323,14.323,0,0,0,14.323,0M18.68,23.222q-.189-.038-.37-.087a69.583,69.583,0,0,0,6.05-5.447,9.28,9.28,0,0,0,1.39-1.975,7.153,7.153,0,0,1-.178,3.626,6.046,6.046,0,0,1-4.4,3.9,6.824,6.824,0,0,1-2.5-.017m-2.267.41a15.607,15.607,0,0,0-2.157,2.71,15.608,15.608,0,0,0-2.157-2.71l-.2-.2a5.664,5.664,0,0,0,2.354-2.811A5.664,5.664,0,0,0,16.6,23.432l-.2.2M15.11,20.264l-.868-2.094-.868,2.094a4.707,4.707,0,0,1-2.2,2.493c-.829-.756-1.7-1.465-2.562-2.184a39.882,39.882,0,0,1-3.784-3.522A8.382,8.382,0,0,1,3.44,14.992q-.159-.332-.291-.68.132-.348.291-.68a8.379,8.379,0,0,1,1.388-2.059,39.885,39.885,0,0,1,3.8-3.522c.86-.719,1.733-1.428,2.562-2.184a4.707,4.707,0,0,1,2.2,2.493l.868,2.094.868-2.094a4.706,4.706,0,0,1,2.2-2.493c.829.756,1.7,1.465,2.562,2.184a39.834,39.834,0,0,1,3.784,3.522,8.526,8.526,0,0,1,1.678,2.739,8.527,8.527,0,0,1-1.678,2.739,39.832,39.832,0,0,1-3.784,3.522c-.86.719-1.733,1.428-2.562,2.184a4.705,4.705,0,0,1-2.2-2.493M9.833,23.222a6.82,6.82,0,0,1-2.5.018,6.047,6.047,0,0,1-4.4-3.9,7.176,7.176,0,0,1-.177-3.625,9.291,9.291,0,0,0,1.389,1.974,69.582,69.582,0,0,0,6.05,5.447q-.18.049-.37.087m0-17.819q.189.038.37.087a69.589,69.589,0,0,0-6.05,5.447A9.29,9.29,0,0,0,2.763,12.91,7.175,7.175,0,0,1,2.94,9.286a6.047,6.047,0,0,1,4.4-3.9,6.82,6.82,0,0,1,2.5.017m2.267-.41a15.607,15.607,0,0,0,2.157-2.709,15.606,15.606,0,0,0,2.157,2.709l.2.2A5.663,5.663,0,0,0,14.256,8,5.663,5.663,0,0,0,11.9,5.19l.2-.2m6.58.41a6.82,6.82,0,0,1,2.5-.017,6.046,6.046,0,0,1,4.4,3.9,7.153,7.153,0,0,1,.178,3.626,9.275,9.275,0,0,0-1.39-1.975,69.589,69.589,0,0,0-6.05-5.447q.18-.049.37-.087" fill="#3e9dd2"/>
        <path id="Path_1552" data-name="Path 1552" d="M31,56.462h2.188v6.126h1.489V56.462H36.86V55.215H31Z" transform="translate(-24.962 -44.453)" fill="#3e9dd2"/>
        <rect id="Rectangle_409" data-name="Rectangle 409" width="1.489" height="7.373" transform="translate(12.818 10.762)" fill="#3e9dd2"/>
        <path id="Path_1553" data-name="Path 1553" d="M82.613,62.588h1.619L81.28,55.215H79.706l-2.872,7.373h1.579l.609-1.675h2.947ZM79.48,59.671l1-2.736L81.5,59.671Z" transform="translate(-61.859 -44.453)" fill="#3e9dd2"/>
      </g>
    </g>
  </g>
</svg>
