<svg id="ic-tool-upload" xmlns="http://www.w3.org/2000/svg" width="20" height="20" viewBox="0 0 20 20">
  <path id="Path_1870" data-name="Path 1870" d="M0,0H20V20H0Z" fill="none"/>
  <path id="Path_1871" data-name="Path 1871" d="M16.333,4H4.667A1.666,1.666,0,0,0,3,5.667v10a1.666,1.666,0,0,0,1.667,1.667H8V15.667H4.667V7.333H16.333v8.333H13v1.667h3.333A1.672,1.672,0,0,0,18,15.667v-10A1.666,1.666,0,0,0,16.333,4ZM10.5,9,7.167,12.333h2.5v5h1.667v-5h2.5Z" transform="translate(-0.5 -0.667)" fill="#3e9dd2"/>
</svg>
