<svg id="ic-user-menu" xmlns="http://www.w3.org/2000/svg" width="30" height="30" viewBox="0 0 30 30">
  <g id="Group_7" data-name="Group 7">
    <rect id="Rectangle_256" data-name="Rectangle 256" width="30" height="30" fill="none"/>
  </g>
  <g id="Group_8" data-name="Group 8" transform="translate(4 4)">
    <path id="Path_628" data-name="Path 628" d="M13.5,2A11.5,11.5,0,1,0,25,13.5,11.5,11.5,0,0,0,13.5,2Zm0,4.6a4.025,4.025,0,1,1-4.025,4.025A4.025,4.025,0,0,1,13.5,6.6Zm0,16.1a9.209,9.209,0,0,1-7.061-3.312,11.444,11.444,0,0,1,14.122,0A9.209,9.209,0,0,1,13.5,22.7Z" transform="translate(-2 -2)" fill="#3e9dd2"/>
  </g>
</svg>
