<svg id="ic-upload-off" xmlns="http://www.w3.org/2000/svg" width="24" height="24" viewBox="0 0 24 24">
  <g id="Group_410" data-name="Group 410">
    <rect id="Rectangle_562" data-name="Rectangle 562" width="24" height="24" fill="none"/>
  </g>
  <g id="Group_412" data-name="Group 412">
    <g id="Group_411" data-name="Group 411">
      <path id="Path_1732" data-name="Path 1732" d="M20,6H12L10,4H7.17l4,4H20v9.17l1.76,1.76A1.949,1.949,0,0,0,22,18V8A2.006,2.006,0,0,0,20,6Z" fill="#fff"/>
      <path id="Path_1733" data-name="Path 1733" d="M2.1,2.1.69,3.51,2.25,5.07A1.949,1.949,0,0,0,2.01,6L2,18a2.006,2.006,0,0,0,2,2H17.17l3.31,3.31,1.41-1.41ZM4,18V6.83L15.17,18Z" fill="#fff"/>
    </g>
  </g>
</svg>
