<svg xmlns="http://www.w3.org/2000/svg" width="19" height="19" viewBox="0 0 19 19">
  <g id="ic-unsupported" transform="translate(0.219 0.219)">
    <rect id="Rectangle_276" data-name="Rectangle 276" width="19" height="19" transform="translate(-0.219 -0.219)" fill="none"/>
    <path id="Path_666" data-name="Path 666" d="M17.111,17.429l-4.723-4.723-2.083-2.083h0L4.027,4.345h0L2.935,3.254h0L1.782,2.1.69,3.192l1.788,1.8v10.2a1.553,1.553,0,0,0,1.548,1.548h10.2l1.788,1.788ZM4.027,15.184V6.536l5.3,5.3,1.8,1.8,1.548,1.548ZM6.218,4.345,4.669,2.8h10.2a1.553,1.553,0,0,1,1.548,1.548v10.2l-1.548-1.548V4.345Z" transform="translate(-0.131 -0.45)" fill="#fff"/>
  </g>
</svg>
