<svg id="ic-water-right" xmlns="http://www.w3.org/2000/svg" width="24" height="24" viewBox="0 0 24 24">
  <rect id="Rectangle_540" data-name="Rectangle 540" width="24" height="24" fill="none"/>
  <path id="Path_1689" data-name="Path 1689" d="M12,2Q4.005,8.825,4,13.8a8,8,0,0,0,16,0Q20,8.82,12,2Zm0,18a5.954,5.954,0,0,1-6-6.2c0-2.34,1.95-5.44,6-9.14,4.05,3.7,6,6.79,6,9.14A5.954,5.954,0,0,1,12,20ZM7.83,14a.751.751,0,0,1,.74.62,3.388,3.388,0,0,0,3.64,2.87.751.751,0,1,1,.07,1.5,4.873,4.873,0,0,1-5.19-4.12A.75.75,0,0,1,7.83,14Z" fill="#3e9dd2"/>
</svg>
