<svg id="ic-work" xmlns="http://www.w3.org/2000/svg" width="24" height="24" viewBox="0 0 24 24">
  <g id="Group_250" data-name="Group 250">
    <rect id="Rectangle_399" data-name="Rectangle 399" width="24" height="24" fill="none"/>
  </g>
  <g id="Group_252" data-name="Group 252">
    <g id="Group_251" data-name="Group 251">
      <rect id="Rectangle_400" data-name="Rectangle 400" width="3" height="8.48" transform="translate(13.783 15.172) rotate(-45)" fill="#0070c0"/>
      <path id="Path_1531" data-name="Path 1531" d="M17.5,10A3.5,3.5,0,0,0,21,6.5a3.455,3.455,0,0,0-.41-1.6l-2.7,2.7L16.4,6.11l2.7-2.7A3.455,3.455,0,0,0,17.5,3,3.5,3.5,0,0,0,14,6.5a3.41,3.41,0,0,0,.21,1.16L12.36,9.51,10.58,7.73l.71-.71L9.88,5.61,12,3.49a3,3,0,0,0-4.24,0L4.22,7.03,5.63,8.44H2.81l-.71.71,3.54,3.54.71-.71V9.15l1.41,1.41.71-.71,1.78,1.78L2.84,19.04l2.12,2.12L16.34,9.79A3.41,3.41,0,0,0,17.5,10Z" fill="#0070c0"/>
    </g>
  </g>
</svg>
