<svg id="ic-work-manage" xmlns="http://www.w3.org/2000/svg" width="24" height="24" viewBox="0 0 24 24">
  <g id="Group_382" data-name="Group 382">
    <rect id="Rectangle_542" data-name="Rectangle 542" width="24" height="24" fill="none"/>
  </g>
  <g id="Group_384" data-name="Group 384">
    <g id="Group_383" data-name="Group 383">
      <path id="Path_1690" data-name="Path 1690" d="M9,15c-2.67,0-8,1.34-8,4v2H17V19C17,16.34,11.67,15,9,15ZM3,19c.22-.72,3.31-2,6-2s5.8,1.29,6,2Z" fill="#45a0d3"/>
      <path id="Path_1691" data-name="Path 1691" d="M4.74,9H5a4,4,0,0,0,8,0h.26a.491.491,0,0,0,.49-.49V8.49A.491.491,0,0,0,13.26,8H13a4,4,0,0,0-2-3.45V5.5a.5.5,0,0,1-1,0V4.14A4.091,4.091,0,0,0,9,4a4.091,4.091,0,0,0-1,.14V5.5a.5.5,0,0,1-1,0V4.55A4,4,0,0,0,5,8H4.74a.491.491,0,0,0-.49.49v.03A.489.489,0,0,0,4.74,9ZM11,9A2,2,0,0,1,7,9Z" fill="#45a0d3"/>
      <path id="Path_1692" data-name="Path 1692" d="M21.98,6.23l.93-.83-.75-1.3-1.19.39a1.982,1.982,0,0,0-.47-.27L20.25,3h-1.5L18.5,4.22a2.272,2.272,0,0,0-.48.27L16.84,4.1l-.75,1.3.93.83a2.261,2.261,0,0,0,0,.52l-.93.85.75,1.3,1.2-.38a2.3,2.3,0,0,0,.43.25L18.75,10h1.5l.27-1.22a2.38,2.38,0,0,0,.44-.25l1.19.38.75-1.3-.93-.85a2.37,2.37,0,0,0,.01-.53ZM19.5,7.75A1.25,1.25,0,1,1,20.75,6.5,1.25,1.25,0,0,1,19.5,7.75Z" fill="#45a0d3"/>
      <path id="Path_1693" data-name="Path 1693" d="M19.4,10.79l-.85.28a1.35,1.35,0,0,0-.33-.19L18.04,10H16.97l-.18.87a1.863,1.863,0,0,0-.34.19l-.84-.28-.54.93.66.59a2.284,2.284,0,0,0,0,.37l-.66.61.54.93.86-.27a1.924,1.924,0,0,0,.31.18l.18.88h1.07l.19-.87a2.016,2.016,0,0,0,.32-.18l.85.27.54-.93-.66-.61a2.284,2.284,0,0,0,0-.37l.66-.59Zm-1.9,2.6a.89.89,0,1,1,.89-.89.89.89,0,0,1-.89.89Z" fill="#45a0d3"/>
    </g>
  </g>
</svg>
