<svg xmlns="http://www.w3.org/2000/svg" xmlns:xlink="http://www.w3.org/1999/xlink" width="69.477" height="44.577" viewBox="0 0 69.477 44.577">
  <defs>
    <clipPath id="clip-path">
      <rect id="Rectangle_755" data-name="Rectangle 755" width="69.477" height="44.577" transform="translate(0 0)" fill="none"/>
    </clipPath>
  </defs>
  <g id="logo-top" transform="translate(0 0)">
    <g id="Group_680" data-name="Group 680" clip-path="url(#clip-path)">
      <path id="Path_1990" data-name="Path 1990" d="M18.088,41.2l.1.041a60.27,60.27,0,0,0,19.346,3.332,39.351,39.351,0,0,0,17.05-3.565A31.781,31.781,0,0,0,69.173,26.58a2.681,2.681,0,0,0-2.021-3.9,27.252,27.252,0,0,0,1.236-8.41,37,37,0,0,0-1.119-9.03,2.682,2.682,0,0,0-5.259.518h0a1.054,1.054,0,0,1-.117.253,5.609,5.609,0,0,1-.917,1.1,16.4,16.4,0,0,1-2.124,1.695c-.325.222-.607.4-.8.519-.1.06-.172.105-.22.133l-.051.03-.01.005h0c-.564.29-1.1.593-1.613.9A6.331,6.331,0,0,0,43.835,8.861a2.669,2.669,0,0,0-.428-.422A12.02,12.02,0,0,0,40.348,6.7a21.94,21.94,0,0,1-6.053-3.85,10.744,10.744,0,0,1-1.133-1.219c-.1-.135-.17-.23-.2-.278l-.024-.036h0a2.676,2.676,0,0,0-4.906.722,5.924,5.924,0,0,0-1.631-1,7.088,7.088,0,0,0-2.7-.5,3.119,3.119,0,0,0-.374.026,4.842,4.842,0,0,0-1.093.307,6.2,6.2,0,0,0-2.771,2.257,8.982,8.982,0,0,0-1.41,5.186,15.944,15.944,0,0,0,.133,2c-.257-.183-.508-.37-.782-.541a11.737,11.737,0,0,0-6.209-1.836,11.3,11.3,0,0,0-1.388.086l-.244.041a12.567,12.567,0,0,0-4.836,2.437,12.27,12.27,0,0,0-3.274,4.035A14.281,14.281,0,0,0,0,21.06q0,.65.048,1.336l.016.156a17.789,17.789,0,0,0,2.971,6.991C5.525,33.295,10.1,37.8,18.088,41.2M44.321,32.69h0s-.194,0-.56-.038a19.97,19.97,0,0,1-2.892-.52,2.656,2.656,0,0,0,.972-1.294c1.263.564,2.183,1.083,2.346,1.18a2.671,2.671,0,0,0,3.578-.835c.088.342.177.684.268.985.055.181.11.353.165.518-.6.045-1.209.077-1.845.078q-.917,0-1.886-.068Zm4.952-15.479c-.075.132-.137.266-.208.4-.038-.162-.085-.313-.126-.472.117.017.234.034.353.044l-.019.03m8.5-7.712h0Z" fill="#fff"/>
      <path id="Path_1991" data-name="Path 1991" d="M66.793,25.341A25.218,25.218,0,0,1,44.277,35.373S29.971,35.2,22.447,19.812c0,0-4.445-10.089-12.312-9.12,0,0-8.093,1.767-7.41,11.514,0,0,1.312,10.088,16.417,16.53,0,0,33.971,12.882,47.651-13.4" fill="#2484b5"/>
      <path id="Path_1992" data-name="Path 1992" d="M41.257,40.332S26.38,38.28,18.685,21.237c0,0-4.731-8.607-10.716-5.3,0,0-5.6,3.484-1.881,10.324,0,0,10.2,17.664,35.169,14.073" fill="#57b7d8"/>
      <path id="Path_1993" data-name="Path 1993" d="M32.82,39.818A33.728,33.728,0,0,1,19.2,25.17s-4.561-8.55-11-4.389c0,0-4.331,3.191,1.768,9.4A40.145,40.145,0,0,0,32.82,39.818" fill="#74bfdc"/>
      <path id="Path_1994" data-name="Path 1994" d="M39.318,29.958S29.572,27.735,27.462,6.474A3.51,3.51,0,0,0,23.7,3.225s-3.649.513-2.851,6.783c0,0,1.938,14.649,18.468,19.95" fill="#2484b5"/>
      <path id="Path_1995" data-name="Path 1995" d="M51.459,33.663S44.333,19.356,59.1,11.832c0,0,5.415-3.077,5.586-5.871,0,0,5.87,21.147-10.546,25.935a20.542,20.542,0,0,1,3.585-11.343s-6.206,3.762-6.263,13.11" fill="#367537"/>
      <path id="Path_1996" data-name="Path 1996" d="M53.5,10.87a3.655,3.655,0,1,1-3.655-3.655A3.655,3.655,0,0,1,53.5,10.87" fill="#89b535"/>
      <path id="Path_1997" data-name="Path 1997" d="M46.187,18.33a40.461,40.461,0,0,1,.473,8.781,30.855,30.855,0,0,0,.3-4.506c-.047-6.051-2.342-9.5-4.4-11.383a16.39,16.39,0,0,1,3.633,7.108" fill="#89b535"/>
      <path id="Path_1998" data-name="Path 1998" d="M45.866,23.865a19.552,19.552,0,0,0-4.087-13.293,9.116,9.116,0,0,0-2.46-1.391c-6.7-2.993-8.692-6.5-8.692-6.5-2.651,20.6,10.259,24.879,10.259,24.879a29.675,29.675,0,0,1,4.65,2.134c.53-8.545-9.908-13.49-9.908-13.49a17.568,17.568,0,0,1,9.856,8.153,14.764,14.764,0,0,0-1.976-5.807,1.616,1.616,0,0,1-1.477-.1,4.442,4.442,0,0,1-.913-.959,1.446,1.446,0,0,1,1.463,0,3.8,3.8,0,0,1,.971.976l.081-.045c-.062-.086-.122-.169-.174-.256-.164-.271-.324-.545-.46-.827a1.607,1.607,0,0,1-.04-1.09,1.28,1.28,0,0,1,.148-.364c.182.187.375.367.542.561a1.834,1.834,0,0,1,.546,1.129,1.911,1.911,0,0,1-.312,1.049,19.769,19.769,0,0,1,1.983,5.247M39.828,12.716l.018-.112.018-.045a3.118,3.118,0,0,1,1.314,1.148,1.711,1.711,0,0,1-.04,1.452c-.256-.252-.5-.472-.715-.708a2.918,2.918,0,0,1-.438-.56,1.834,1.834,0,0,1-.157-1.175M37.9,11.272c1.456.589,1.886,1.272,1.559,2.408-.15-.11-.3-.2-.42-.308a10.62,10.62,0,0,1-.874-.83,1.494,1.494,0,0,1-.266-.886,3.286,3.286,0,0,1,0-.384m-.256,1.152a5.083,5.083,0,0,1-1.426-.974,1.814,1.814,0,0,1-.392-1.229c1.438.391,2.01.969,1.818,2.2m-1.972-1.057C34.6,10.975,33.646,10.5,33.661,9.4c1.367.13,2.283,1.019,2.016,1.966m-4.366-1.123c-.062-.054-.12-.113-.18-.17a1.965,1.965,0,0,1,2.777.734,1.922,1.922,0,0,1-1.363.169,2.921,2.921,0,0,1-1.234-.733m2.515,1.912c-.311-.105-.6-.239-.9-.354-.1-.038-.1-.086-.007-.151.2-.144.393-.3.608-.422a.94.94,0,0,1,.561-.114,3.964,3.964,0,0,1,1.487.487,1.7,1.7,0,0,1-1.747.554m2.109.913a4.983,4.983,0,0,1-1.144-.583,1.553,1.553,0,0,1,1.587-.437,5.155,5.155,0,0,1,1.155.6,6.176,6.176,0,0,1-.577.327,1.411,1.411,0,0,1-1.021.093m1.824,1.088a4.659,4.659,0,0,1-1.11-.729,1.528,1.528,0,0,1,1.467-.317,4.544,4.544,0,0,1,1.192.757,1.748,1.748,0,0,1-1.549.289m1.568,1.225c-.328-.241-.615-.514-.919-.774l-.018-.042a1.56,1.56,0,0,1,1.379-.191,4.17,4.17,0,0,1,1.159.9l.016.042a1.6,1.6,0,0,1-1.617.066m1.4,1.49a4.115,4.115,0,0,1-.842-.959,1.252,1.252,0,0,1,1.355,0c.421.284.475.636.9,1.017v.024a1.389,1.389,0,0,1-1.408-.078m1.911-.076c-.154-.179-.3-.332-.425-.5-.186-.256-.371-.513-.531-.781a1.607,1.607,0,0,1-.135-1.079,1.262,1.262,0,0,1,.115-.378c.2.168.4.329.589.506a1.81,1.81,0,0,1,.642,1.072,1.95,1.95,0,0,1-.255,1.158" fill="#89b535"/>
      <path id="Path_1999" data-name="Path 1999" d="M30.267,24.528S22.076,18.5,21.648,9.01c0,0,.054-3.152,2.95-2.694a3.3,3.3,0,0,1,1.71,3.378s.48,9.49,3.959,14.663" fill="#57b7d8"/>
      <path id="Path_2000" data-name="Path 2000" d="M28.146,22.092a19.8,19.8,0,0,1-5.771-11.466S22.289,8.5,23.786,8.5c0,0,1.5.341,1.2,2.372,0,0-1.155,7.026,3.164,11.222" fill="#74bfdc"/>
    </g>
  </g>
</svg>
