<svg id="logo" xmlns="http://www.w3.org/2000/svg" xmlns:xlink="http://www.w3.org/1999/xlink" width="337.004" height="47.11" viewBox="0 0 337.004 47.11">
  <defs>
    <linearGradient id="linear-gradient" x1="0.9" y1="-13.984" x2="0.49" y2="0.762" gradientUnits="objectBoundingBox">
      <stop offset="0.08" stop-color="#ffa400"/>
      <stop offset="0.54" stop-color="#3dae2b"/>
      <stop offset="1" stop-color="#006d46"/>
    </linearGradient>
    <linearGradient id="linear-gradient-2" x1="0.603" y1="-0.3" x2="0.48" y2="0.943" xlink:href="#linear-gradient"/>
    <linearGradient id="linear-gradient-3" x1="0.947" y1="-2.439" x2="-0.44" y2="6.426" xlink:href="#linear-gradient"/>
    <linearGradient id="linear-gradient-4" x1="0.543" y1="0.084" x2="0.481" y2="0.919" xlink:href="#linear-gradient"/>
  </defs>
  <path id="Path_539" data-name="Path 539" d="M19.643-12.179H3.18v-5.849H8.031v-1.309H9.877v1.309h2.994v-1.309h1.867v1.309h4.9ZM17.8-15.688v-.977H14.738v.977Zm-4.926,0v-.977H9.877v.977Zm-4.84,0v-.977H5.047v.977ZM17.8-13.5v-.966H14.738v.966Zm-4.926,0v-.966H9.877v.966Zm-4.84,0v-.966H5.047v.966ZM20.8-5.321H8.385v3.08A28.215,28.215,0,0,0,11.7-3.035L11.819-1.4A46.1,46.1,0,0,1,6.367-.244L5.841-1.693q.7-.236.7-.816V-5.321H4.714A11.3,11.3,0,0,1,2.976-.083L1.527-1.446A8.619,8.619,0,0,0,2.847-6v-5.28H20.523v1.449H4.8v.923H19.5V-7.65H4.8v.944h16Zm.043,3.67L20.126-.019a14.827,14.827,0,0,1-9.08-4.175l1.739-.644a11.285,11.285,0,0,0,2.372,1.653,24.8,24.8,0,0,0,2.984-1.7l1.406,1.127q-.859.569-2.35,1.406A14.305,14.305,0,0,0,20.845-1.65ZM41.022-18.328a12.214,12.214,0,0,1-1.889,2.039l-1.739-1.03a13.262,13.262,0,0,0,1.921-1.932Zm1.717,12.9H34.121v5.27H32.168v-5.27h-8.6V-7.081h8.6V-8.2H24.612V-9.85h7.556v-1.073H24.054v-1.653h5.012a6.756,6.756,0,0,0-.762-.944l1.47-.816H23.528v-1.642h6.729v-3.273h1.91v3.273h1.975v-3.273h1.921v3.273H42.7v1.642H36.632l1.3.687a8.37,8.37,0,0,1-.73,1.073h5.055v1.653H34.121V-9.85H41.73V-8.2H34.121v1.116h8.618Zm-6.772-8.908H30.193a14.564,14.564,0,0,1,1.223,1.76h3.327A11.09,11.09,0,0,0,35.967-14.336Zm-7.3-2.855L27.2-16.128a14.269,14.269,0,0,0-1.953-1.943l1.47-1.138A12.841,12.841,0,0,1,28.669-17.191ZM43.136-1.908,42.063-.33a40.286,40.286,0,0,0-6.289-2.984L36.911-4.9A44.48,44.48,0,0,1,43.136-1.908ZM30.568-3.582a30.094,30.094,0,0,1-5.7,3.316L23.592-1.8a24.421,24.421,0,0,0,5.452-3.059ZM56.787-9.828H45.594v-1.728H48.5a18.88,18.88,0,0,0-1.32-3.1l1.449-.88h-2.6V-17.3h4.357a9.969,9.969,0,0,0-.923-1.76l1.932-.5A11.98,11.98,0,0,1,52.452-17.3h3.96v1.76H54.19l1.384.773q-.472,1.32-1.342,3.209h2.554Zm-2.994-5.71H48.921a28.154,28.154,0,0,1,1.556,3.982h1.7A21.757,21.757,0,0,0,53.793-15.538Zm8.865,4.068a10.553,10.553,0,0,1,1.985,5.6,3.887,3.887,0,0,1-.445,2,2.226,2.226,0,0,1-1.079.993,7.607,7.607,0,0,1-2.554.172l-.547-1.889q.891.086,1.846.086a.817.817,0,0,0,.622-.263A1.984,1.984,0,0,0,62.733-6a8.575,8.575,0,0,0-2.061-5.13,54.853,54.853,0,0,0,1.846-5.956H59.535V-.2H57.689V-18.854h6.7v1.771Q63.635-14.186,62.658-11.47ZM55.618-.223H53.729V-1.468H48.781V-.223H46.828V-8.3h8.79ZM53.729-3.228V-6.523H48.781v3.295Zm31.854-8.951H69.119v-5.849H73.97v-1.309h1.846v1.309H78.81v-1.309h1.867v1.309h4.9Zm-1.846-3.509v-.977H80.678v.977Zm-4.926,0v-.977H75.816v.977Zm-4.84,0v-.977H70.986v.977ZM83.736-13.5v-.966H80.678v.966Zm-4.926,0v-.966H75.816v.966Zm-4.84,0v-.966H70.986v.966ZM86.741-5.321H74.324v3.08a28.215,28.215,0,0,0,3.316-.794L77.758-1.4A46.1,46.1,0,0,1,72.306-.244l-.526-1.449q.7-.236.7-.816V-5.321H70.654A11.3,11.3,0,0,1,68.915-.083L67.466-1.446A8.619,8.619,0,0,0,68.786-6v-5.28H86.462v1.449H70.739v.923h14.7V-7.65h-14.7v.944h16Zm.043,3.67L86.065-.019a14.827,14.827,0,0,1-9.08-4.175l1.739-.644A11.285,11.285,0,0,0,81.1-3.185a24.8,24.8,0,0,0,2.984-1.7l1.406,1.127q-.859.569-2.35,1.406A14.305,14.305,0,0,0,86.784-1.65ZM107.423-.159h-1.975V-1.736H92.741V-.159H90.766V-18.79h16.657Zm-1.975-11.226v-5.495h-5.323v5.495Zm-7.362,0v-5.495H92.741v5.495Zm7.362,7.759V-9.5h-5.323v5.871Zm-7.362,0V-9.5H92.741v5.871Zm32.7.193L129.5-1.822a18.417,18.417,0,0,1-7.212-8.307v7.684A2.45,2.45,0,0,1,121.927-1a1.688,1.688,0,0,1-.9.66,6.728,6.728,0,0,1-1.749.161q-.837,0-1.792-.064l-.59-1.975q1.266.118,2.018.118a3.214,3.214,0,0,0,1.164-.123.536.536,0,0,0,.231-.521V-19.369h1.975v4.422a16.049,16.049,0,0,0,1.116,3.123,21.827,21.827,0,0,0,5.055-5.033l1.653,1.095a25.486,25.486,0,0,1-5.849,5.677A17.151,17.151,0,0,0,130.787-3.432ZM119.432-14.658q-.719,8.328-6.708,12.965l-1.256-1.556a13.618,13.618,0,0,0,4-4.363,11.559,11.559,0,0,0,1.7-5.2h-5.055v-1.846Zm25.253,6.611L143.7-6.222a19.3,19.3,0,0,0-3.434-3.467V-.18h-1.932V-9.431a20.686,20.686,0,0,1-4.046,5.72L133.3-5.578a20.676,20.676,0,0,0,4.883-6.858H133.8v-1.9h4.529v-2.189q-1.384.161-3.359.236l-.816-1.889a28.782,28.782,0,0,0,8.747-1.213l1.138,1.653a29.243,29.243,0,0,1-3.778.923v2.479h4v1.9h-4v.59A29.591,29.591,0,0,1,144.685-8.047Zm7.384,5.495a2.236,2.236,0,0,1-2.533,2.415l-2.479.011-.687-2.05q1.062.064,3.306.064.419,0,.419-.483V-19.251h1.975Zm-4.529-1.47h-1.953V-17.8h1.953Zm26-10.743H156.437v-4.293h17.107Zm-1.867-1.417v-1.406h-3.123v1.406Zm-5.055,0v-1.406h-3.166v1.406Zm-5.076,0v-1.406h-3.187v1.406Zm13.008,7.04h-6.836q-.461.29-2.479,1.363h7.244v7.62h-1.91v-.987h-9.777v.923h-1.867V-5.535q-1.342.408-2.9.762l-.837-1.621a46.872,46.872,0,0,0,9.144-2.747h-8.908v-1.545h7.652v-1.266h-6.128v-1.406h6.128v-.794h1.867v.794h4.529v1.073q1.009-.816,2.136-1.867l1.621.751a20.456,20.456,0,0,1-3.187,2.715h4.508Zm-5.538-2.812h-4.068v1.266h2.243A19.879,19.879,0,0,0,169.015-11.953Zm1.556,6.7V-6.33h-9.047l-.73.268v.8Zm0,2.619v-1.17h-9.777v1.17Zm13.877-7.148-1.481,1.438a13.73,13.73,0,0,0-1.009-2.2V-.18h-1.846V-8.97a17.578,17.578,0,0,1-1.91,3.316L177.215-7.8a15.511,15.511,0,0,0,2.79-5.806h-2.533v-1.824h2.64v-3.939h1.846v3.939H183.7v1.824h-1.739v.29A19.188,19.188,0,0,1,184.448-9.785Zm12.278,5.259a6.966,6.966,0,0,1-.622,3.241,2.037,2.037,0,0,1-1.889.934,10.5,10.5,0,0,1-2.361-.161,1.57,1.57,0,0,1-.864-.639,2.432,2.432,0,0,1-.327-1.379V-19.337h1.8v4.787A22.423,22.423,0,0,0,195-16.729l1.266,1.384a25.716,25.716,0,0,1-3.8,3.059v1.739a25.385,25.385,0,0,1,3.982,3.4l-1.363,1.427A17.536,17.536,0,0,0,192.465-8.3v5.516q0,.58.9.58.977,0,1.175-.241a9.871,9.871,0,0,0,.381-2.742Zm-7.47-4.615A11.065,11.065,0,0,1,185.393-.18l-1.588-1.2a8.865,8.865,0,0,0,3.52-6.4,35.736,35.736,0,0,1-2.951,2.522l-1.159-1.578a21.734,21.734,0,0,0,4.2-3.585v-8.919h1.846Zm-2.329-3.273-1.7.762a19.692,19.692,0,0,0-1.47-4.658l1.717-.7A19.846,19.846,0,0,1,186.928-12.415ZM217.74-.2h-1.91v-.8H202.135v.8h-1.953V-19.037H217.74Zm-1.91-2.479V-17.319H202.135V-2.681Zm-.719-9.605H202.758v-1.384h5.248v-.987h-4.593V-16h4.593v-.773h1.889V-16h4.572v1.342h-4.572v.987h5.216Zm-1.062,4.508h-5.27a7.359,7.359,0,0,1-1.062.987v1.8a15.164,15.164,0,0,0,1.921-.59l.15,1.513a28.031,28.031,0,0,1-3.821,1.073l-.44-1.342a.834.834,0,0,0,.386-.719v-.483a20.812,20.812,0,0,1-2.608,1.159l-.751-1.449a13.336,13.336,0,0,0,3.982-1.953h-2.619V-11.47h10.131ZM212.095-9.12v-1.03h-6.268v1.03Zm3.187,4.851-1.127,1.191a36.209,36.209,0,0,0-5.27-3.209L210-7.381a11.454,11.454,0,0,1,1.964,1.009q.676-.558,1.363-1.234l1.535.816a18.489,18.489,0,0,1-1.427,1.234Q214.392-4.924,215.282-4.269Zm25.3-12.192h-6.772a11.182,11.182,0,0,1-1.245,1.556l-1.782-.944a12.622,12.622,0,0,0,2.565-3.735l1.985.569q-.279.569-.483.9h5.731Zm-9.8,0h-5.806a17.123,17.123,0,0,1-2.436,2.265l-1.277-1.588A8.4,8.4,0,0,0,224.6-19.52l1.985.526a5.035,5.035,0,0,1-.44.88h4.636Zm-2.028,1.889-2.146.4a11.362,11.362,0,0,0-.923-1.545l2.082-.429A9.439,9.439,0,0,1,228.751-14.572Zm8.886.129-2.114.333a8.877,8.877,0,0,0-.837-1.717l2.136-.236A11.772,11.772,0,0,1,237.638-14.443Zm2.393,4.508H238.1V-12.05H223.836v2.114h-1.943v-3.735h7.92a6.746,6.746,0,0,0-.537-.987l2.243-.354a9.344,9.344,0,0,1,.708,1.342h7.8Zm-2,8.854H226.358V-.2h-1.91V-10.944h12.857v4.2H226.358v1.17h11.677Zm-2.683-7.094V-9.453h-8.994v1.277Zm.719,5.6V-4.108h-9.713v1.535Zm26.444,1.91H249.926V-2.444h5.4V-4.612h-4.636V-6.351h4.636V-8.24h-4.5V-18.79h10.85V-8.24h-4.432v1.889h4.744v1.739h-4.744v2.168h5.27Zm-2.747-13.759v-2.629h-2.522v2.629Zm-4.443,0v-2.629H252.76v2.629Zm4.443,4.443v-2.855h-2.522v2.855Zm-4.443,0v-2.855H252.76v2.855Zm-5.312,5.119a53.02,53.02,0,0,1-6.117,3.166l-.676-1.867q.794-.311,2.619-1.191v-5.473h-2.114V-12.05h2.114V-16.4H243.39v-1.76h6.579v1.76h-2.243v4.347h1.91v1.824h-1.91v4.465a15.323,15.323,0,0,0,2.222-1.159Zm34.215-10.947a13.992,13.992,0,0,1-1.288,4.175l-1.76-.59a9.134,9.134,0,0,0,.719-1.91h-7.073v.923l5.624-.193.043,1.492-5.667.193v.29q0,.633.676.633h6.729v1.588h-7.362a2.173,2.173,0,0,1-1.368-.435,1.645,1.645,0,0,1-.563-1.39v-.6l-3.252.1-.043-1.5,3.295-.107v-.987H268.6v6.794a14.441,14.441,0,0,1-1.8,7.18l-1.6-1.2a14.912,14.912,0,0,0,1.47-7.191v-7.255h6.708v-3.585h1.953v1h7.631v1.6H275.33v.987Zm.419,13.694-.59,1.782a69.875,69.875,0,0,1-7.92-.182,8.175,8.175,0,0,1-3.263-1.223A15.179,15.179,0,0,1,269.727.045l-1.052-1.567a10.825,10.825,0,0,0,2.769-1.363q-.354-.376-.923-1.095a9.349,9.349,0,0,1-.837.9L268.6-4.462a14.527,14.527,0,0,0,2.93-5.012l1.642.44a3.935,3.935,0,0,1-.343,1.073h3.338v1.674a12.53,12.53,0,0,1-2,3.273,6.409,6.409,0,0,0,2.265.767,39.754,39.754,0,0,0,4.69.177Q282.714-2.069,284.645-2.112Zm-10.41-4.175h-2.179a6.982,6.982,0,0,1-.526.944A5.588,5.588,0,0,0,272.808-4,9.3,9.3,0,0,0,274.235-6.287Zm10.11.708a4.437,4.437,0,0,1-.52,2.2,2.119,2.119,0,0,1-1.808.612,2.57,2.57,0,0,1-1.572-.376,1.309,1.309,0,0,1-.478-1.095V-6.6h-1.009a5.334,5.334,0,0,1-1.7,4.132L275.813-3.5a4.3,4.3,0,0,0,1.342-3.488V-8.218h4.572v3.338q0,.461.44.461a.478.478,0,0,0,.488-.354,4.389,4.389,0,0,0,.123-1.266Z" transform="translate(52.359 30.098)" fill="#333"/>
  <g id="Group_461" data-name="Group 461">
    <g id="Group_460" data-name="Group 460" transform="translate(14.706 16.959)">
      <path id="Path_533" data-name="Path 533" d="M26.461,42.257a2.986,2.986,0,0,0-1.234.056,8.532,8.532,0,0,0-2.767,1.215,1.069,1.069,0,0,0,.58.654,2.273,2.273,0,0,0,1.243.168,4.112,4.112,0,0,0,.785-.178,5.744,5.744,0,0,0,.785-.346,6.179,6.179,0,0,0,.729-.486,7.61,7.61,0,0,0,.626-.6,1.062,1.062,0,0,0-.739-.486Z" transform="translate(-16.168 -19.706)" fill="url(#linear-gradient)"/>
      <path id="Path_534" data-name="Path 534" d="M30.735,30.593a2.577,2.577,0,0,0-.795.729,6.05,6.05,0,0,0-.654,1.094,14.5,14.5,0,0,0,.346-2.244.907.907,0,0,0,.645-.112,1.889,1.889,0,0,0,.7-.767,4.061,4.061,0,0,0,.337-2.711.86.86,0,0,0-.692.252,2.6,2.6,0,0,0-.58.851,5.91,5.91,0,0,0-.374,1.253c0-.514-.037-1.019-.084-1.505-.047-.309-.084-.608-.14-.9.439,0,.86-.346,1.084-1.113a3.954,3.954,0,0,0-.29-2.58.857.857,0,0,0-.589.383,1.934,1.934,0,0,0-.206.393,1.847,1.847,0,0,0-.075.243,2.3,2.3,0,0,0-.065.271,4.2,4.2,0,0,0-.065.589c0,.2-.019.411,0,.608a2.292,2.292,0,0,0,.019.252c-.037-.15-.084-.309-.122-.449A14.864,14.864,0,0,0,27.8,21.917c-.215-.365-.383-.645-.514-.832s-.2-.29-.2-.29H27.07c-.009-.075-.028-.168-.047-.262a2.8,2.8,0,0,0-.178-.486,2.93,2.93,0,0,0-.309-.5,2.311,2.311,0,0,0-.2-.252c-.075-.075-.15-.159-.224-.234a2.663,2.663,0,0,0-.243-.215c-.037-.037-.084-.065-.122-.1a1.135,1.135,0,0,1-.131-.093,4.067,4.067,0,0,0-.5-.29,2.2,2.2,0,0,0-.935-.215,2.724,2.724,0,0,0,.421.841,2.892,2.892,0,0,0,.337.439,1.023,1.023,0,0,0,.093.1c.028.037.065.075.093.112.065.075.14.15.206.215s.15.14.224.206.15.131.215.2a4.408,4.408,0,0,0,.449.318,3.335,3.335,0,0,0,.43.243,3.608,3.608,0,0,0,.365.14c.028.047.075.112.131.206.131.187.29.467.5.832.168.309.355.682.542,1.1l-.056-.112a4.651,4.651,0,0,0-.309-.439,1.772,1.772,0,0,0-.178-.2c-.065-.065-.131-.122-.2-.178a2.418,2.418,0,0,0-.43-.28A1.2,1.2,0,0,0,25.593,22a3.556,3.556,0,0,0,.561.748c.112.112.234.215.355.318a2.258,2.258,0,0,0,.393.271,2.11,2.11,0,0,0,.206.1l.2.084a1.492,1.492,0,0,0,.383.084.952.952,0,0,0,.636-.15c0-.019-.019-.037-.028-.065a14.583,14.583,0,0,1,.6,1.776c.037.178.084.346.131.533a.273.273,0,0,0,.019.084,2.639,2.639,0,0,0-.729-1.019c-.065-.056-.131-.1-.2-.15a2.23,2.23,0,0,0-.206-.112,1.144,1.144,0,0,0-.393-.112,1.015,1.015,0,0,0-.673.14,2.006,2.006,0,0,0,.168.449,2.781,2.781,0,0,0,.224.439c.047.075.093.14.14.215s.093.14.14.206a2.6,2.6,0,0,0,.346.374,1.455,1.455,0,0,0,1.365.5c.028.234.065.477.093.72.037.458.056.935.056,1.412a2.474,2.474,0,0,0-.458-.991,1.6,1.6,0,0,0-.729-.58,1.089,1.089,0,0,0-.729-.019,4.071,4.071,0,0,0,.617,1.963,2.214,2.214,0,0,0,.636.673,1.149,1.149,0,0,0,.6.187A13.562,13.562,0,0,1,29,32.079a2.852,2.852,0,0,0-.215-1.066,1.789,1.789,0,0,0-.608-.767,1.15,1.15,0,0,0-.739-.2,4.316,4.316,0,0,0,.159,2.141,1.655,1.655,0,0,0,1.038,1.178,13.567,13.567,0,0,1-.767,1.832c.019-.075.037-.159.056-.234a1.826,1.826,0,0,0,.028-.318,2.673,2.673,0,0,0-.037-.617,2.225,2.225,0,0,0-.168-.533,1.536,1.536,0,0,0-.271-.393,1.209,1.209,0,0,0-.7-.374,4.443,4.443,0,0,0-.365,2.2,1.7,1.7,0,0,0,.776,1.458,13.524,13.524,0,0,1-1.225,1.655c0-.009.019-.028.028-.037.056-.1.1-.2.15-.3s.075-.215.112-.318.056-.215.084-.318.028-.215.037-.318a2.3,2.3,0,0,0-.037-.58,1.735,1.735,0,0,0-.178-.467,1.231,1.231,0,0,0-.626-.552,4.686,4.686,0,0,0-.9,2.132,1.778,1.778,0,0,0,.449,1.7q-.323.323-.673.617c-.365.309-.739.6-1.113.86l.252-.252a3.138,3.138,0,0,0,.224-.271c.065-.093.131-.2.187-.29s.112-.2.159-.3a1.83,1.83,0,0,0,.112-.318,1.863,1.863,0,0,0,.028-1.1,1.273,1.273,0,0,0-.5-.7,4.817,4.817,0,0,0-1.421,1.935,1.784,1.784,0,0,0,.075,1.879c-.019.009-.047.028-.065.037a13.525,13.525,0,0,1-2.047.982,13.725,13.725,0,0,1-3.282.832c-.206.019-.383.047-.542.065s-.29.019-.4.028c-.215.009-.337.019-.337.019l.028.664.355-.028c.112-.009.252-.019.421-.037s.355-.047.57-.075a14.209,14.209,0,0,0,3.412-.926,14.242,14.242,0,0,0,4.226-2.627c.065-.065.14-.131.206-.187.28.449.944.654,1.86.327a3.982,3.982,0,0,0,.692-.346,4.083,4.083,0,0,0,.645-.5,5.946,5.946,0,0,0,.57-.617,4.6,4.6,0,0,0,.449-.692,1,1,0,0,0-.795-.29,1.883,1.883,0,0,0-.533.093,4.206,4.206,0,0,0-.608.234,6.8,6.8,0,0,0-1.412.926A15.864,15.864,0,0,0,27.3,37.016c.374.327,1.019.346,1.767-.15a3.3,3.3,0,0,0,.561-.477,2.436,2.436,0,0,0,.252-.29c.084-.1.159-.206.234-.318a4.678,4.678,0,0,0,.654-1.44.946.946,0,0,0-.8-.093,2.04,2.04,0,0,0-.477.206,3.189,3.189,0,0,0-.514.355,6.164,6.164,0,0,0-.972,1c.056-.112.122-.224.178-.337a13.307,13.307,0,0,0,.711-1.739c.421.206,1.01.065,1.58-.552a3.614,3.614,0,0,0,.411-.561,3.719,3.719,0,0,0,.318-.673c.047-.122.084-.234.122-.355s.056-.243.084-.374a4.066,4.066,0,0,0,.084-.739.91.91,0,0,0-.767.093Z" transform="translate(-15.73 -18.139)" fill="url(#linear-gradient-2)"/>
      <path id="Path_535" data-name="Path 535" d="M28.646,21.513c.019.093.037.187.065.28s.047.187.075.28a5.343,5.343,0,0,0,.2.542,3.2,3.2,0,0,0,.234.514.8.8,0,0,0,.542-.374,1.318,1.318,0,0,0,.168-.383c.019-.075.037-.159.056-.243A2.47,2.47,0,0,0,30,21.859a3.356,3.356,0,0,0-.047-.6,3.684,3.684,0,0,0-.168-.608,3.987,3.987,0,0,0-.617-1.1c-.4.15-.617.673-.57,1.393a2.869,2.869,0,0,0,.065.561Z" transform="translate(-16.567 -18.231)" fill="url(#linear-gradient-3)"/>
    </g>
    <path id="Path_536" data-name="Path 536" d="M21.409,45.427A16.7,16.7,0,0,1,4.759,29.038a17.012,17.012,0,0,1,3.665-9.779h0c.355-.5,9.742-11.668,12.331-14.725.692-.813.131-1.374.131-1.374L18.408.224,18.221,0l-.159.187C16.483,2.038,7,13.435,5.049,16.118,1.954,20.372,0,24.756,0,28.889A17.992,17.992,0,0,0,18.221,47.11a18.437,18.437,0,0,0,11.556-4.058A15.908,15.908,0,0,1,21.4,45.427Z" fill="#0098cc"/>
    <path id="Path_537" data-name="Path 537" d="M38.658,29a5.911,5.911,0,0,0,.542-.916,3.47,3.47,0,0,0,.206-.514c.056-.178.112-.355.159-.542a5.073,5.073,0,0,0,.159-1.122,5.516,5.516,0,0,0-.047-1.113,1.636,1.636,0,0,0-1.225.3,3.226,3.226,0,0,0-.58.514,4.48,4.48,0,0,0-.542.729,9.225,9.225,0,0,0-1.01,2.375c.037-.262.065-.533.084-.795-.009.065-.028.131-.037.2.047-.337.084-.682.112-1.028a18.378,18.378,0,0,0,.056-2.029c.767.131,1.627-.355,2.132-1.552a4.422,4.422,0,0,0,.271-.963,4.851,4.851,0,0,0,.075-1.047c0-.178-.019-.355-.028-.533-.028-.178-.056-.355-.093-.533a4.617,4.617,0,0,0-.318-1.019,1.43,1.43,0,0,0-1.056.524,3.451,3.451,0,0,0-.729,1.384,8.149,8.149,0,0,0-.346,2.3c-.019-.159-.028-.318-.047-.467a19.147,19.147,0,0,0-.682-3.16,1.435,1.435,0,0,0,.926-.486,2.592,2.592,0,0,0,.58-1.374,5.389,5.389,0,0,0-1.084-3.749,1.335,1.335,0,0,0-.86.692,3.342,3.342,0,0,0-.346,1.421,7.577,7.577,0,0,0,.15,1.7c-.3-.72-.636-1.412-.982-2.057-.187-.318-.365-.626-.552-.926a1.788,1.788,0,0,0,.767-1.963A5.432,5.432,0,0,0,32.384,10a1.175,1.175,0,0,0-.626.813,2.224,2.224,0,0,0-.065.626,2.366,2.366,0,0,0,.028.355c.019.131.037.262.065.393a5.372,5.372,0,0,0,.243.813,1.686,1.686,0,0,1,.075.2,20.376,20.376,0,0,0-2.057-2.169,1.212,1.212,0,0,0,.318-.58,2.059,2.059,0,0,0,.028-.6,1.6,1.6,0,0,0-.065-.346,2.845,2.845,0,0,0-.131-.365,4.312,4.312,0,0,0-.411-.757,5.243,5.243,0,0,0-.6-.711A6.308,6.308,0,0,0,27.644,6.54c-.5.411-.514,1.206-.019,2.141a5.06,5.06,0,0,0,.421.711.809.809,0,0,1,.065.093,4.094,4.094,0,0,0-.365-.243c-.262-.178-.4-.271-.4-.271l-.019.019a3.252,3.252,0,0,0-.206-.337,3.342,3.342,0,0,0-.5-.552,5.331,5.331,0,0,0-.664-.5c-.122-.075-.252-.159-.383-.224s-.28-.131-.421-.187-.29-.112-.43-.159a1.884,1.884,0,0,0-.215-.065,1.768,1.768,0,0,0-.215-.047,5.473,5.473,0,0,0-.823-.122,3.241,3.241,0,0,0-1.346.206,4.068,4.068,0,0,0,.991.9,4.744,4.744,0,0,0,.673.4c.056.028.122.065.187.093s.122.065.187.093a3.817,3.817,0,0,0,.393.178c.131.056.271.1.4.15l.393.14a6.374,6.374,0,0,0,.757.187,3.808,3.808,0,0,0,.7.093,5.471,5.471,0,0,0,.561-.009c.065.047.15.1.262.178.243.159.58.421,1.01.748a7.041,7.041,0,0,0,.524.533,2.883,2.883,0,0,0,.309.28.934.934,0,0,0-.131-.075c-.112-.056-.224-.122-.337-.168s-.234-.084-.355-.122a3.187,3.187,0,0,0-.711-.14,1.679,1.679,0,0,0-1.8.888,5.009,5.009,0,0,0,1.776.926,4.012,4.012,0,0,0,.664.15,2.018,2.018,0,0,0,.327.028h.309a1.939,1.939,0,0,0,.542-.084,1.312,1.312,0,0,0,.757-.533,18.211,18.211,0,0,1,1.552,1.8c.15.2.3.4.449.608a3.784,3.784,0,0,1,.215.318.854.854,0,0,1,.075.122,3.77,3.77,0,0,0-1.739-1.215c-.122-.037-.234-.065-.346-.093s-.224-.028-.327-.037a2.26,2.26,0,0,0-.58.056,1.407,1.407,0,0,0-.813.542,3.855,3.855,0,0,0,.458.5,4.154,4.154,0,0,0,.524.467c.093.075.2.14.29.206s.2.131.3.2a4.085,4.085,0,0,0,.645.309,2.006,2.006,0,0,0,2.113-.093c.15.252.29.514.439.776a21.285,21.285,0,0,1,1.169,2.683,3.954,3.954,0,0,0-1.468-1.655,2.262,2.262,0,0,0-1.262-.374,1.466,1.466,0,0,0-.963.355A5.82,5.82,0,0,0,33.1,19.573a3.14,3.14,0,0,0,1.187.552A1.422,1.422,0,0,0,35.273,20,18.515,18.515,0,0,1,35.9,23.1c-.009-.037-.028-.075-.037-.112a3.938,3.938,0,0,0-.907-1.44,2.434,2.434,0,0,0-1.2-.682,1.6,1.6,0,0,0-1.075.131,6.012,6.012,0,0,0,1.328,2.73,2.316,2.316,0,0,0,2,1,19.524,19.524,0,0,1-.075,2.337,1.84,1.84,0,0,1-.028.224A.259.259,0,0,0,35.9,27.2a3.407,3.407,0,0,0-.131-.439,3.091,3.091,0,0,0-.374-.795,2.744,2.744,0,0,0-.5-.608,2.025,2.025,0,0,0-.561-.374,1.64,1.64,0,0,0-1.122-.122,6.362,6.362,0,0,0,.673,3.085,2.559,2.559,0,0,0,1.636,1.505,16.47,16.47,0,0,1-.561,1.935v-.122c-.009-.159-.037-.309-.056-.458a3.382,3.382,0,0,0-.122-.439,2.849,2.849,0,0,0-.355-.739,2.107,2.107,0,0,0-.477-.514,1.691,1.691,0,0,0-1.113-.393,6.591,6.591,0,0,0-.065,3.282,2.854,2.854,0,0,0,1.141,1.851c-.075.14-.14.28-.215.421-.168.309-.346.617-.533.916a1.679,1.679,0,0,1,.019-.206,4.065,4.065,0,0,0-.019-.477,2.717,2.717,0,0,0-.533-1.468,1.783,1.783,0,0,0-1.028-.664,6.95,6.95,0,0,0-.86,3.291,3.168,3.168,0,0,0,.589,2.038,19.719,19.719,0,0,1-1.748,1.776c-.458.411-.907.776-1.346,1.1a13.77,13.77,0,0,1-7.049,2.076C15.65,42.74,10.76,39.449,8.03,34.456c2.59,6.1,7.741,10.228,13.612,10.144a13.512,13.512,0,0,0,10.022-4.974,1.776,1.776,0,0,0,1.075.421,3.773,3.773,0,0,0,1.907-.439,6.795,6.795,0,0,0,1.991-1.524,8.233,8.233,0,0,0,.776-1.028,8.346,8.346,0,0,0,.57-1.113,1.806,1.806,0,0,0-1.356-.252,5.215,5.215,0,0,0-1.776.72,11.014,11.014,0,0,0-1.8,1.374A20.114,20.114,0,0,0,34.544,35.1c.673.458,1.767.383,2.926-.542a6.018,6.018,0,0,0,.8-.813,6.492,6.492,0,0,0,.654-.991,7.1,7.1,0,0,0,.467-1.1,6.17,6.17,0,0,0,.252-1.15,1.729,1.729,0,0,0-1.328.037,3.146,3.146,0,0,0-.729.4,6.326,6.326,0,0,0-.748.626,10.59,10.59,0,0,0-1.954,2.721,22.081,22.081,0,0,0,1.225-4.179A2.321,2.321,0,0,0,38.667,29ZM29.842,11.177l.084.084-.1-.075A.029.029,0,0,0,29.842,11.177Z" transform="translate(-0.523 -0.426)" fill="url(#linear-gradient-4)"/>
    <path id="Path_538" data-name="Path 538" d="M23.249,27.638c-.168-.589-.664-2.375-3.861-6.731L16.3,16.69l-3.085,4.216c-3.188,4.357-3.693,6.142-3.861,6.731a7.322,7.322,0,1,0,13.893.009Z" transform="translate(-0.586 -1.086)" fill="#0098cc"/>
  </g>
  <path id="Path_540" data-name="Path 540" d="M2.166-.421V-5.663H.208v-.7h4.71v.7H2.952V-.421ZM7.026-.952a2.717,2.717,0,0,1-.78.486,2.255,2.255,0,0,1-.8.142A1.565,1.565,0,0,1,4.35-.67a1.144,1.144,0,0,1-.381-.886,1.178,1.178,0,0,1,.144-.578,1.191,1.191,0,0,1,.377-.42,1.773,1.773,0,0,1,.525-.239A5.214,5.214,0,0,1,5.663-2.9a6.669,6.669,0,0,0,1.3-.251q0-.15,0-.191a.806.806,0,0,0-.207-.628,1.221,1.221,0,0,0-.831-.247,1.289,1.289,0,0,0-.76.18,1.1,1.1,0,0,0-.363.638l-.713-.1a1.768,1.768,0,0,1,.32-.74,1.4,1.4,0,0,1,.645-.434,2.875,2.875,0,0,1,.977-.152,2.586,2.586,0,0,1,.9.13,1.18,1.18,0,0,1,.507.326,1.148,1.148,0,0,1,.227.5A4.108,4.108,0,0,1,7.7-3.2v.973A10.326,10.326,0,0,0,7.749-.938a1.624,1.624,0,0,0,.184.517H7.171A1.547,1.547,0,0,1,7.026-.952Zm-.061-1.63a5.353,5.353,0,0,1-1.192.276,2.757,2.757,0,0,0-.636.146.634.634,0,0,0-.288.237.623.623,0,0,0-.1.347.621.621,0,0,0,.221.486A.951.951,0,0,0,5.615-.9a1.5,1.5,0,0,0,.75-.184,1.136,1.136,0,0,0,.482-.5,1.763,1.763,0,0,0,.118-.73Zm2.009.008a2.219,2.219,0,0,1,.665-1.771,2,2,0,0,1,1.354-.478,1.932,1.932,0,0,1,1.451.582,2.213,2.213,0,0,1,.563,1.607,2.848,2.848,0,0,1-.249,1.307,1.765,1.765,0,0,1-.726.74,2.113,2.113,0,0,1-1.04.263A1.935,1.935,0,0,1,9.531-.9,2.315,2.315,0,0,1,8.973-2.574Zm.75,0a1.834,1.834,0,0,0,.361,1.238,1.156,1.156,0,0,0,.908.411,1.15,1.15,0,0,0,.9-.413A1.877,1.877,0,0,0,12.257-2.6a1.779,1.779,0,0,0-.363-1.21,1.154,1.154,0,0,0-.9-.411,1.159,1.159,0,0,0-.908.409A1.825,1.825,0,0,0,9.723-2.574Zm4.518,3.81L14.16.552a1.626,1.626,0,0,0,.418.065.8.8,0,0,0,.389-.081.663.663,0,0,0,.239-.227,3.579,3.579,0,0,0,.223-.543q.02-.061.065-.178L13.86-4.726h.786l.9,2.493q.174.474.312,1a9.818,9.818,0,0,1,.3-.981l.92-2.509h.73L16.166-.348a8.593,8.593,0,0,1-.409.977,1.441,1.441,0,0,1-.446.529,1.053,1.053,0,0,1-.6.168A1.461,1.461,0,0,1,14.241,1.237ZM21.657-.421v-.632a1.576,1.576,0,0,1-1.366.73A1.741,1.741,0,0,1,19.58-.47a1.172,1.172,0,0,1-.49-.367,1.375,1.375,0,0,1-.225-.541,3.705,3.705,0,0,1-.045-.681V-4.726h.73v2.388a4.255,4.255,0,0,0,.045.77.761.761,0,0,0,.292.452.9.9,0,0,0,.551.164,1.2,1.2,0,0,0,.616-.168.935.935,0,0,0,.407-.458,2.3,2.3,0,0,0,.12-.841V-4.726h.73V-.421Zm5.016-.531a2.717,2.717,0,0,1-.78.486,2.255,2.255,0,0,1-.8.142A1.565,1.565,0,0,1,24-.67a1.144,1.144,0,0,1-.381-.886,1.178,1.178,0,0,1,.144-.578,1.191,1.191,0,0,1,.377-.42,1.773,1.773,0,0,1,.525-.239,5.214,5.214,0,0,1,.649-.109,6.669,6.669,0,0,0,1.3-.251q0-.15,0-.191a.806.806,0,0,0-.207-.628,1.221,1.221,0,0,0-.831-.247,1.289,1.289,0,0,0-.76.18,1.1,1.1,0,0,0-.363.638l-.713-.1a1.768,1.768,0,0,1,.32-.74,1.4,1.4,0,0,1,.645-.434,2.875,2.875,0,0,1,.977-.152,2.586,2.586,0,0,1,.9.13,1.18,1.18,0,0,1,.507.326,1.148,1.148,0,0,1,.227.5,4.108,4.108,0,0,1,.036.673v.973A10.327,10.327,0,0,0,27.4-.938a1.624,1.624,0,0,0,.184.517h-.762A1.547,1.547,0,0,1,26.674-.952Zm-.061-1.63a5.353,5.353,0,0,1-1.192.276,2.757,2.757,0,0,0-.636.146.634.634,0,0,0-.288.237.623.623,0,0,0-.1.347.621.621,0,0,0,.221.486.951.951,0,0,0,.647.195,1.5,1.5,0,0,0,.75-.184,1.136,1.136,0,0,0,.482-.5,1.763,1.763,0,0,0,.118-.73Zm2.28,2.161V-4.726h.657v.612a1.548,1.548,0,0,1,1.37-.709,1.8,1.8,0,0,1,.715.14,1.125,1.125,0,0,1,.488.367,1.408,1.408,0,0,1,.227.539,4.178,4.178,0,0,1,.041.709V-.421h-.73V-3.04a1.966,1.966,0,0,0-.085-.667.7.7,0,0,0-.3-.353.961.961,0,0,0-.509-.132,1.182,1.182,0,0,0-.8.3,1.46,1.46,0,0,0-.338,1.123V-.421Zm7.815,0V-6.364h1.184L39.3-2.156q.195.588.284.88.1-.324.316-.953l1.423-4.135h1.058V-.421h-.758V-5.395L39.895-.421h-.709L37.466-5.48V-.421ZM46.776-.952A2.717,2.717,0,0,1,46-.466a2.255,2.255,0,0,1-.8.142A1.565,1.565,0,0,1,44.1-.67a1.144,1.144,0,0,1-.381-.886,1.178,1.178,0,0,1,.144-.578,1.191,1.191,0,0,1,.377-.42,1.773,1.773,0,0,1,.525-.239,5.214,5.214,0,0,1,.649-.109,6.669,6.669,0,0,0,1.3-.251q0-.15,0-.191a.806.806,0,0,0-.207-.628,1.221,1.221,0,0,0-.831-.247,1.289,1.289,0,0,0-.76.18,1.1,1.1,0,0,0-.363.638l-.713-.1a1.768,1.768,0,0,1,.32-.74,1.4,1.4,0,0,1,.645-.434,2.875,2.875,0,0,1,.977-.152,2.586,2.586,0,0,1,.9.13,1.18,1.18,0,0,1,.507.326,1.148,1.148,0,0,1,.227.5,4.108,4.108,0,0,1,.036.673v.973A10.327,10.327,0,0,0,47.5-.938a1.624,1.624,0,0,0,.184.517h-.762A1.547,1.547,0,0,1,46.776-.952Zm-.061-1.63a5.353,5.353,0,0,1-1.192.276,2.757,2.757,0,0,0-.636.146.634.634,0,0,0-.288.237.623.623,0,0,0-.1.347.621.621,0,0,0,.221.486.951.951,0,0,0,.647.195,1.5,1.5,0,0,0,.75-.184,1.136,1.136,0,0,0,.482-.5,1.763,1.763,0,0,0,.118-.73Zm2.28,2.161V-4.726h.657v.612a1.548,1.548,0,0,1,1.37-.709,1.8,1.8,0,0,1,.715.14,1.125,1.125,0,0,1,.488.367,1.408,1.408,0,0,1,.227.539,4.178,4.178,0,0,1,.041.709V-.421h-.73V-3.04a1.966,1.966,0,0,0-.085-.667.7.7,0,0,0-.3-.353.961.961,0,0,0-.509-.132,1.182,1.182,0,0,0-.8.3,1.46,1.46,0,0,0-.338,1.123V-.421Zm7.838-.531a2.717,2.717,0,0,1-.78.486,2.255,2.255,0,0,1-.8.142,1.565,1.565,0,0,1-1.09-.347,1.144,1.144,0,0,1-.381-.886,1.178,1.178,0,0,1,.144-.578,1.191,1.191,0,0,1,.377-.42,1.773,1.773,0,0,1,.525-.239,5.214,5.214,0,0,1,.649-.109,6.669,6.669,0,0,0,1.3-.251q0-.15,0-.191a.806.806,0,0,0-.207-.628,1.221,1.221,0,0,0-.831-.247,1.289,1.289,0,0,0-.76.18,1.1,1.1,0,0,0-.363.638L53.9-3.5a1.768,1.768,0,0,1,.32-.74,1.4,1.4,0,0,1,.645-.434,2.875,2.875,0,0,1,.977-.152,2.586,2.586,0,0,1,.9.13,1.18,1.18,0,0,1,.507.326,1.148,1.148,0,0,1,.227.5,4.108,4.108,0,0,1,.036.673v.973a10.327,10.327,0,0,0,.047,1.287,1.624,1.624,0,0,0,.184.517h-.762A1.547,1.547,0,0,1,56.833-.952Zm-.061-1.63a5.353,5.353,0,0,1-1.192.276,2.757,2.757,0,0,0-.636.146.634.634,0,0,0-.288.237.623.623,0,0,0-.1.347.621.621,0,0,0,.221.486.951.951,0,0,0,.647.195,1.5,1.5,0,0,0,.75-.184,1.136,1.136,0,0,0,.482-.5,1.763,1.763,0,0,0,.118-.73ZM58.918-.064l.709.105a.676.676,0,0,0,.247.478,1.215,1.215,0,0,0,.742.2,1.3,1.3,0,0,0,.782-.2,1,1,0,0,0,.373-.568,4.66,4.66,0,0,0,.053-.936,1.5,1.5,0,0,1-1.192.563,1.625,1.625,0,0,1-1.374-.64A2.466,2.466,0,0,1,58.772-2.6,2.859,2.859,0,0,1,59-3.735a1.784,1.784,0,0,1,.647-.8,1.746,1.746,0,0,1,1-.284,1.543,1.543,0,0,1,1.257.616v-.519h.673V-1a3.53,3.53,0,0,1-.2,1.425,1.5,1.5,0,0,1-.649.663,2.248,2.248,0,0,1-1.092.243A2.06,2.06,0,0,1,59.376.979,1.172,1.172,0,0,1,58.918-.064Zm.6-2.586a1.868,1.868,0,0,0,.336,1.236,1.068,1.068,0,0,0,.843.389,1.078,1.078,0,0,0,.843-.387,1.807,1.807,0,0,0,.341-1.214,1.765,1.765,0,0,0-.351-1.192,1.084,1.084,0,0,0-.845-.4,1.053,1.053,0,0,0-.827.4A1.755,1.755,0,0,0,59.522-2.651Zm7.505.843.754.093a1.84,1.84,0,0,1-.661,1.026,1.986,1.986,0,0,1-1.232.365,1.969,1.969,0,0,1-1.5-.582,2.273,2.273,0,0,1-.553-1.632A2.379,2.379,0,0,1,64.4-4.223a1.894,1.894,0,0,1,1.451-.6,1.84,1.84,0,0,1,1.411.588,2.335,2.335,0,0,1,.547,1.654q0,.065,0,.195H64.591a1.654,1.654,0,0,0,.4,1.086,1.194,1.194,0,0,0,.9.377,1.117,1.117,0,0,0,.685-.211A1.4,1.4,0,0,0,67.028-1.807Zm-2.4-1.18h2.4A1.458,1.458,0,0,0,66.76-3.8a1.118,1.118,0,0,0-.9-.422,1.159,1.159,0,0,0-.845.336A1.332,1.332,0,0,0,64.632-2.987ZM69.109-.421V-4.726h.653v.6a1.534,1.534,0,0,1,.539-.509,1.515,1.515,0,0,1,.766-.193,1.416,1.416,0,0,1,.784.2,1.063,1.063,0,0,1,.432.555,1.546,1.546,0,0,1,1.33-.754,1.311,1.311,0,0,1,.985.355,1.516,1.516,0,0,1,.345,1.092V-.421h-.726V-3.133a2,2,0,0,0-.071-.63.611.611,0,0,0-.257-.31.8.8,0,0,0-.438-.118,1.019,1.019,0,0,0-.754.3,1.33,1.33,0,0,0-.3.967v2.5h-.73v-2.8a1.231,1.231,0,0,0-.178-.73.675.675,0,0,0-.584-.243,1.06,1.06,0,0,0-.57.162.92.92,0,0,0-.379.474,2.67,2.67,0,0,0-.118.9V-.421ZM79.383-1.807l.754.093a1.84,1.84,0,0,1-.661,1.026,1.986,1.986,0,0,1-1.232.365,1.969,1.969,0,0,1-1.5-.582,2.273,2.273,0,0,1-.553-1.632,2.379,2.379,0,0,1,.559-1.686,1.894,1.894,0,0,1,1.451-.6,1.84,1.84,0,0,1,1.411.588,2.335,2.335,0,0,1,.547,1.654q0,.065,0,.195H76.947a1.654,1.654,0,0,0,.4,1.086,1.194,1.194,0,0,0,.9.377,1.116,1.116,0,0,0,.685-.211A1.4,1.4,0,0,0,79.383-1.807Zm-2.4-1.18h2.4a1.458,1.458,0,0,0-.276-.815,1.118,1.118,0,0,0-.9-.422,1.159,1.159,0,0,0-.845.336A1.332,1.332,0,0,0,76.987-2.987ZM81.465-.421V-4.726h.657v.612a1.548,1.548,0,0,1,1.37-.709,1.8,1.8,0,0,1,.715.14,1.125,1.125,0,0,1,.488.367,1.408,1.408,0,0,1,.227.539,4.178,4.178,0,0,1,.041.709V-.421h-.73V-3.04a1.966,1.966,0,0,0-.085-.667.7.7,0,0,0-.3-.353.961.961,0,0,0-.509-.132,1.182,1.182,0,0,0-.8.3,1.46,1.46,0,0,0-.338,1.123V-.421Zm6.622-.653.105.645a2.707,2.707,0,0,1-.551.065,1.248,1.248,0,0,1-.616-.126.7.7,0,0,1-.308-.33,2.613,2.613,0,0,1-.089-.861V-4.159h-.535v-.568h.535V-5.792l.726-.438v1.5h.734v.568h-.734v2.517a1.272,1.272,0,0,0,.039.4.3.3,0,0,0,.126.142.485.485,0,0,0,.249.053A2.374,2.374,0,0,0,88.086-1.074Zm3.7-2.242a3.229,3.229,0,0,1,.795-2.317,2.7,2.7,0,0,1,2.051-.837,2.846,2.846,0,0,1,1.484.393,2.568,2.568,0,0,1,1.007,1.1,3.561,3.561,0,0,1,.347,1.6A3.5,3.5,0,0,1,97.1-1.767a2.491,2.491,0,0,1-1.034,1.08,2.953,2.953,0,0,1-1.443.367,2.81,2.81,0,0,1-1.5-.405,2.609,2.609,0,0,1-1-1.107A3.354,3.354,0,0,1,91.783-3.315Zm.811.012a2.381,2.381,0,0,0,.578,1.692,1.9,1.9,0,0,0,1.449.618,1.9,1.9,0,0,0,1.461-.624,2.524,2.524,0,0,0,.574-1.771,3.044,3.044,0,0,0-.245-1.267,1.884,1.884,0,0,0-.718-.839,1.945,1.945,0,0,0-1.06-.3,2.011,2.011,0,0,0-1.437.574A2.562,2.562,0,0,0,92.594-3.3ZM98.972-.421V-4.159h-.645v-.568h.645v-.458a2.006,2.006,0,0,1,.077-.645.933.933,0,0,1,.371-.46,1.337,1.337,0,0,1,.744-.176,3.572,3.572,0,0,1,.681.073l-.109.636a2.449,2.449,0,0,0-.43-.041.639.639,0,0,0-.47.142.769.769,0,0,0-.138.531v.4h.839v.568H99.7V-.421Zm2.4,0V-4.159h-.645v-.568h.645v-.458a2.005,2.005,0,0,1,.077-.645.933.933,0,0,1,.371-.46,1.337,1.337,0,0,1,.744-.176,3.572,3.572,0,0,1,.681.073l-.109.636a2.449,2.449,0,0,0-.43-.041.639.639,0,0,0-.47.142.769.769,0,0,0-.138.531v.4h.839v.568H102.1V-.421Zm2.548-5.1v-.839h.73v.839Zm0,5.1V-4.726h.73V-.421ZM108.981-2l.718.093a1.861,1.861,0,0,1-.6,1.161,1.754,1.754,0,0,1-1.19.42A1.848,1.848,0,0,1,106.486-.9a2.344,2.344,0,0,1-.537-1.656,3,3,0,0,1,.231-1.22,1.611,1.611,0,0,1,.7-.784,2.087,2.087,0,0,1,1.028-.261,1.786,1.786,0,0,1,1.147.355,1.626,1.626,0,0,1,.572,1.007l-.709.109A1.178,1.178,0,0,0,108.561-4a.928.928,0,0,0-.622-.219,1.133,1.133,0,0,0-.9.4,1.876,1.876,0,0,0-.345,1.251,1.94,1.94,0,0,0,.332,1.261,1.082,1.082,0,0,0,.868.393,1.022,1.022,0,0,0,.718-.263A1.308,1.308,0,0,0,108.981-2Zm4.7.191.754.093a1.84,1.84,0,0,1-.661,1.026,1.986,1.986,0,0,1-1.232.365,1.969,1.969,0,0,1-1.5-.582,2.273,2.273,0,0,1-.553-1.632,2.379,2.379,0,0,1,.559-1.686,1.894,1.894,0,0,1,1.451-.6,1.84,1.84,0,0,1,1.411.588,2.335,2.335,0,0,1,.547,1.654q0,.065,0,.195h-3.211a1.654,1.654,0,0,0,.4,1.086,1.194,1.194,0,0,0,.9.377,1.117,1.117,0,0,0,.685-.211A1.4,1.4,0,0,0,113.681-1.807Zm-2.4-1.18h2.4a1.458,1.458,0,0,0-.276-.815,1.118,1.118,0,0,0-.9-.422,1.159,1.159,0,0,0-.845.336A1.332,1.332,0,0,0,111.285-2.987Zm4.668,2.566v-.831h.831v.831a1.475,1.475,0,0,1-.162.74,1.057,1.057,0,0,1-.515.436l-.2-.312a.693.693,0,0,0,.341-.3,1.27,1.27,0,0,0,.122-.565Zm5.472,0V-6.364h.786V-.421Zm2.483,0V-4.726h.657v.653a1.781,1.781,0,0,1,.464-.6.81.81,0,0,1,.468-.146,1.423,1.423,0,0,1,.75.235L126-3.911a1.044,1.044,0,0,0-.535-.158.7.7,0,0,0-.43.144.78.78,0,0,0-.272.4,2.842,2.842,0,0,0-.122.851V-.421Zm3.176,0V-4.726h.657v.653a1.781,1.781,0,0,1,.464-.6.81.81,0,0,1,.468-.146,1.423,1.423,0,0,1,.75.235l-.251.677a1.044,1.044,0,0,0-.535-.158.7.7,0,0,0-.43.144.779.779,0,0,0-.272.4,2.842,2.842,0,0,0-.122.851V-.421Zm3.188-5.1v-.839H131v.839Zm0,5.1V-4.726H131V-.421Zm2.118.357.709.105a.676.676,0,0,0,.247.478,1.215,1.215,0,0,0,.742.2,1.3,1.3,0,0,0,.782-.2,1,1,0,0,0,.373-.568,4.661,4.661,0,0,0,.053-.936,1.5,1.5,0,0,1-1.192.563,1.625,1.625,0,0,1-1.374-.64,2.466,2.466,0,0,1-.486-1.536,2.859,2.859,0,0,1,.223-1.137,1.784,1.784,0,0,1,.647-.8,1.746,1.746,0,0,1,1-.284,1.543,1.543,0,0,1,1.257.616v-.519h.673V-1a3.529,3.529,0,0,1-.2,1.425,1.5,1.5,0,0,1-.649.663,2.248,2.248,0,0,1-1.092.243,2.06,2.06,0,0,1-1.245-.347A1.172,1.172,0,0,1,132.39-.064Zm.6-2.586a1.868,1.868,0,0,0,.336,1.236,1.068,1.068,0,0,0,.843.389,1.078,1.078,0,0,0,.843-.387,1.807,1.807,0,0,0,.341-1.214,1.765,1.765,0,0,0-.351-1.192,1.084,1.084,0,0,0-.845-.4,1.053,1.053,0,0,0-.827.4A1.755,1.755,0,0,0,132.994-2.651Zm7.368,1.7a2.717,2.717,0,0,1-.78.486,2.255,2.255,0,0,1-.8.142,1.565,1.565,0,0,1-1.09-.347,1.144,1.144,0,0,1-.381-.886,1.178,1.178,0,0,1,.144-.578,1.191,1.191,0,0,1,.377-.42,1.773,1.773,0,0,1,.525-.239A5.215,5.215,0,0,1,139-2.9a6.669,6.669,0,0,0,1.3-.251q0-.15,0-.191a.806.806,0,0,0-.207-.628,1.221,1.221,0,0,0-.831-.247,1.289,1.289,0,0,0-.76.18,1.1,1.1,0,0,0-.363.638l-.713-.1a1.768,1.768,0,0,1,.32-.74,1.4,1.4,0,0,1,.645-.434,2.875,2.875,0,0,1,.977-.152,2.586,2.586,0,0,1,.9.13,1.181,1.181,0,0,1,.507.326,1.148,1.148,0,0,1,.227.5,4.109,4.109,0,0,1,.036.673v.973a10.326,10.326,0,0,0,.047,1.287,1.624,1.624,0,0,0,.184.517h-.762A1.547,1.547,0,0,1,140.362-.952Zm-.061-1.63a5.353,5.353,0,0,1-1.192.276,2.756,2.756,0,0,0-.636.146.634.634,0,0,0-.288.237.623.623,0,0,0-.1.347.621.621,0,0,0,.221.486.951.951,0,0,0,.647.195,1.5,1.5,0,0,0,.75-.184,1.136,1.136,0,0,0,.482-.5,1.763,1.763,0,0,0,.118-.73Zm3.873,1.508.105.645a2.707,2.707,0,0,1-.551.065,1.248,1.248,0,0,1-.616-.126.7.7,0,0,1-.308-.33,2.613,2.613,0,0,1-.089-.861V-4.159h-.535v-.568h.535V-5.792l.726-.438v1.5h.734v.568h-.734v2.517a1.272,1.272,0,0,0,.038.4.3.3,0,0,0,.126.142.485.485,0,0,0,.249.053A2.373,2.373,0,0,0,144.174-1.074ZM145.3-5.525v-.839h.73v.839Zm0,5.1V-4.726h.73V-.421Zm1.98-2.153a2.219,2.219,0,0,1,.665-1.771,2,2,0,0,1,1.354-.478,1.931,1.931,0,0,1,1.451.582,2.213,2.213,0,0,1,.563,1.607,2.848,2.848,0,0,1-.249,1.307,1.765,1.765,0,0,1-.726.74,2.113,2.113,0,0,1-1.04.263,1.935,1.935,0,0,1-1.461-.58A2.315,2.315,0,0,1,147.283-2.574Zm.75,0a1.834,1.834,0,0,0,.361,1.238,1.156,1.156,0,0,0,.908.411,1.15,1.15,0,0,0,.9-.413,1.877,1.877,0,0,0,.361-1.261,1.779,1.779,0,0,0-.363-1.21,1.154,1.154,0,0,0-.9-.411,1.159,1.159,0,0,0-.908.409A1.825,1.825,0,0,0,148.033-2.574Zm4.55,2.153V-4.726h.657v.612a1.547,1.547,0,0,1,1.37-.709,1.8,1.8,0,0,1,.715.14,1.125,1.125,0,0,1,.488.367,1.408,1.408,0,0,1,.227.539,4.178,4.178,0,0,1,.041.709V-.421h-.73V-3.04a1.966,1.966,0,0,0-.085-.667.7.7,0,0,0-.3-.353.961.961,0,0,0-.509-.132,1.182,1.182,0,0,0-.8.3,1.46,1.46,0,0,0-.339,1.123V-.421Zm6.729,0,2.282-5.943h.847l2.432,5.943h-.9l-.693-1.8H160.8l-.653,1.8Zm1.715-2.44h2.015l-.62-1.646q-.284-.75-.422-1.232a7.575,7.575,0,0,1-.32,1.135Zm4.66,2.8.709.105a.676.676,0,0,0,.247.478,1.215,1.215,0,0,0,.742.2,1.3,1.3,0,0,0,.782-.2,1,1,0,0,0,.373-.568,4.661,4.661,0,0,0,.053-.936,1.5,1.5,0,0,1-1.192.563,1.625,1.625,0,0,1-1.374-.64,2.466,2.466,0,0,1-.486-1.536,2.859,2.859,0,0,1,.223-1.137,1.784,1.784,0,0,1,.647-.8,1.746,1.746,0,0,1,1-.284,1.543,1.543,0,0,1,1.257.616v-.519h.673V-1a3.529,3.529,0,0,1-.2,1.425,1.5,1.5,0,0,1-.649.663,2.248,2.248,0,0,1-1.092.243,2.06,2.06,0,0,1-1.245-.347A1.172,1.172,0,0,1,165.687-.064Zm.6-2.586a1.868,1.868,0,0,0,.336,1.236,1.068,1.068,0,0,0,.843.389,1.078,1.078,0,0,0,.843-.387,1.807,1.807,0,0,0,.341-1.214,1.765,1.765,0,0,0-.351-1.192,1.084,1.084,0,0,0-.845-.4,1.053,1.053,0,0,0-.827.4A1.755,1.755,0,0,0,166.291-2.651Zm7.505.843.754.093a1.84,1.84,0,0,1-.661,1.026,1.986,1.986,0,0,1-1.232.365,1.969,1.969,0,0,1-1.5-.582,2.273,2.273,0,0,1-.553-1.632,2.379,2.379,0,0,1,.559-1.686,1.894,1.894,0,0,1,1.451-.6,1.841,1.841,0,0,1,1.411.588,2.335,2.335,0,0,1,.547,1.654q0,.065,0,.195H171.36a1.654,1.654,0,0,0,.4,1.086,1.194,1.194,0,0,0,.9.377,1.117,1.117,0,0,0,.685-.211A1.4,1.4,0,0,0,173.8-1.807Zm-2.4-1.18h2.4a1.458,1.458,0,0,0-.276-.815,1.118,1.118,0,0,0-.9-.422,1.159,1.159,0,0,0-.845.336A1.332,1.332,0,0,0,171.4-2.987Zm4.477,2.566V-4.726h.657v.612a1.547,1.547,0,0,1,1.37-.709,1.8,1.8,0,0,1,.715.14,1.125,1.125,0,0,1,.488.367,1.408,1.408,0,0,1,.227.539,4.178,4.178,0,0,1,.041.709V-.421h-.73V-3.04a1.966,1.966,0,0,0-.085-.667.7.7,0,0,0-.3-.353.961.961,0,0,0-.509-.132,1.182,1.182,0,0,0-.8.3,1.46,1.46,0,0,0-.338,1.123V-.421ZM183.715-2l.718.093a1.861,1.861,0,0,1-.6,1.161,1.754,1.754,0,0,1-1.19.42A1.848,1.848,0,0,1,181.22-.9a2.344,2.344,0,0,1-.537-1.656,3,3,0,0,1,.231-1.22,1.611,1.611,0,0,1,.7-.784,2.087,2.087,0,0,1,1.028-.261,1.786,1.786,0,0,1,1.147.355,1.627,1.627,0,0,1,.572,1.007l-.709.109A1.178,1.178,0,0,0,183.3-4a.928.928,0,0,0-.622-.219,1.133,1.133,0,0,0-.9.4,1.876,1.876,0,0,0-.345,1.251,1.939,1.939,0,0,0,.332,1.261,1.082,1.082,0,0,0,.867.393,1.022,1.022,0,0,0,.717-.263A1.308,1.308,0,0,0,183.715-2Zm1.721,3.235-.081-.685a1.626,1.626,0,0,0,.418.065.8.8,0,0,0,.389-.081A.663.663,0,0,0,186.4.309a3.58,3.58,0,0,0,.223-.543q.02-.061.065-.178l-1.634-4.313h.786l.9,2.493q.174.474.312,1a9.819,9.819,0,0,1,.3-.981l.92-2.509H189L187.362-.348a8.593,8.593,0,0,1-.409.977,1.441,1.441,0,0,1-.446.529,1.053,1.053,0,0,1-.6.168A1.461,1.461,0,0,1,185.436,1.237Zm3.6-1.658v-.831h.831v.831a1.475,1.475,0,0,1-.162.74,1.057,1.057,0,0,1-.515.436l-.2-.312a.693.693,0,0,0,.341-.3,1.27,1.27,0,0,0,.122-.565Zm5.314,0V-6.364h1.184l1.407,4.208q.195.588.284.88.1-.324.316-.953l1.423-4.135h1.058V-.421h-.758V-5.395L197.535-.421h-.709L195.107-5.48V-.421Zm7.262-5.1v-.839h.73v.839Zm0,5.1V-4.726h.73V-.421Zm2.252,0V-4.726h.657v.612a1.547,1.547,0,0,1,1.37-.709,1.8,1.8,0,0,1,.715.14,1.125,1.125,0,0,1,.488.367,1.408,1.408,0,0,1,.227.539,4.176,4.176,0,0,1,.041.709V-.421h-.73V-3.04a1.966,1.966,0,0,0-.085-.667.7.7,0,0,0-.3-.353.961.961,0,0,0-.509-.132,1.182,1.182,0,0,0-.8.3,1.46,1.46,0,0,0-.338,1.123V-.421Zm5.033-5.1v-.839h.73v.839Zm0,5.1V-4.726h.73V-.421Zm1.96-1.285.722-.114a1.008,1.008,0,0,0,.338.665,1.18,1.18,0,0,0,.776.231,1.14,1.14,0,0,0,.746-.2.612.612,0,0,0,.243-.48A.443.443,0,0,0,213.466-2a3.165,3.165,0,0,0-.746-.247,6.807,6.807,0,0,1-1.113-.351,1.078,1.078,0,0,1-.47-.409,1.085,1.085,0,0,1-.16-.578,1.109,1.109,0,0,1,.132-.533,1.181,1.181,0,0,1,.359-.407,1.5,1.5,0,0,1,.464-.213,2.207,2.207,0,0,1,.63-.087,2.492,2.492,0,0,1,.89.146,1.21,1.21,0,0,1,.565.4,1.544,1.544,0,0,1,.251.667l-.713.1a.78.78,0,0,0-.282-.519,1.031,1.031,0,0,0-.659-.186,1.193,1.193,0,0,0-.718.166.484.484,0,0,0-.215.389.4.4,0,0,0,.089.255.644.644,0,0,0,.28.195q.109.041.645.186a8.973,8.973,0,0,1,1.08.338,1.1,1.1,0,0,1,.48.383,1.069,1.069,0,0,1,.174.624,1.225,1.225,0,0,1-.213.687,1.375,1.375,0,0,1-.614.5,2.235,2.235,0,0,1-.908.176,2.023,2.023,0,0,1-1.279-.349A1.621,1.621,0,0,1,210.856-1.706Zm6.447.632.105.645a2.707,2.707,0,0,1-.551.065,1.248,1.248,0,0,1-.616-.126.7.7,0,0,1-.308-.33,2.613,2.613,0,0,1-.089-.861V-4.159h-.535v-.568h.535V-5.792l.726-.438v1.5h.734v.568h-.734v2.517a1.272,1.272,0,0,0,.039.4.3.3,0,0,0,.126.142.485.485,0,0,0,.249.053A2.374,2.374,0,0,0,217.3-1.074Zm1.117.653V-4.726h.657v.653a1.781,1.781,0,0,1,.464-.6.81.81,0,0,1,.468-.146,1.423,1.423,0,0,1,.75.235l-.251.677a1.044,1.044,0,0,0-.535-.158.7.7,0,0,0-.43.144.779.779,0,0,0-.272.4,2.842,2.842,0,0,0-.122.851V-.421Zm3.152,1.658L221.49.552a1.626,1.626,0,0,0,.418.065A.8.8,0,0,0,222.3.536a.663.663,0,0,0,.239-.227,3.577,3.577,0,0,0,.223-.543q.02-.061.065-.178L221.19-4.726h.786l.9,2.493q.174.474.312,1a9.823,9.823,0,0,1,.3-.981l.92-2.509h.73L223.5-.348a8.593,8.593,0,0,1-.409.977,1.441,1.441,0,0,1-.446.529,1.053,1.053,0,0,1-.6.168A1.461,1.461,0,0,1,221.571,1.237Zm7.041-3.81a2.219,2.219,0,0,1,.665-1.771,2,2,0,0,1,1.354-.478,1.932,1.932,0,0,1,1.451.582,2.213,2.213,0,0,1,.563,1.607,2.848,2.848,0,0,1-.249,1.307,1.765,1.765,0,0,1-.726.74,2.113,2.113,0,0,1-1.04.263A1.935,1.935,0,0,1,229.17-.9,2.315,2.315,0,0,1,228.612-2.574Zm.75,0a1.834,1.834,0,0,0,.361,1.238,1.156,1.156,0,0,0,.908.411,1.15,1.15,0,0,0,.9-.413A1.877,1.877,0,0,0,231.9-2.6a1.779,1.779,0,0,0-.363-1.21,1.154,1.154,0,0,0-.9-.411,1.159,1.159,0,0,0-.908.409A1.825,1.825,0,0,0,229.362-2.574Zm4.725,2.153V-4.159h-.645v-.568h.645v-.458a2.005,2.005,0,0,1,.077-.645.933.933,0,0,1,.371-.46,1.337,1.337,0,0,1,.744-.176,3.571,3.571,0,0,1,.681.073l-.109.636a2.449,2.449,0,0,0-.43-.041.639.639,0,0,0-.47.142.769.769,0,0,0-.138.531v.4h.839v.568h-.839V-.421Zm4.244,0,2.282-5.943h.847l2.432,5.943H243l-.693-1.8h-2.485l-.653,1.8Zm1.715-2.44h2.015l-.62-1.646q-.284-.75-.422-1.232A7.575,7.575,0,0,1,240.7-4.6Zm4.66,2.8.709.105a.676.676,0,0,0,.247.478,1.215,1.215,0,0,0,.742.2,1.3,1.3,0,0,0,.782-.2,1,1,0,0,0,.373-.568,4.657,4.657,0,0,0,.053-.936,1.5,1.5,0,0,1-1.192.563,1.625,1.625,0,0,1-1.374-.64,2.466,2.466,0,0,1-.486-1.536,2.859,2.859,0,0,1,.223-1.137,1.784,1.784,0,0,1,.647-.8,1.746,1.746,0,0,1,1-.284,1.543,1.543,0,0,1,1.257.616v-.519h.673V-1a3.529,3.529,0,0,1-.2,1.425,1.5,1.5,0,0,1-.649.663,2.248,2.248,0,0,1-1.092.243,2.06,2.06,0,0,1-1.245-.347A1.172,1.172,0,0,1,244.705-.064Zm.6-2.586a1.868,1.868,0,0,0,.336,1.236,1.068,1.068,0,0,0,.843.389,1.078,1.078,0,0,0,.843-.387,1.807,1.807,0,0,0,.341-1.214,1.765,1.765,0,0,0-.351-1.192,1.084,1.084,0,0,0-.845-.4,1.053,1.053,0,0,0-.827.4A1.755,1.755,0,0,0,245.309-2.651Zm4.55,2.23V-4.726h.657v.653a1.781,1.781,0,0,1,.464-.6.81.81,0,0,1,.468-.146,1.423,1.423,0,0,1,.75.235l-.251.677a1.044,1.044,0,0,0-.535-.158.7.7,0,0,0-.43.144.78.78,0,0,0-.272.4,2.842,2.842,0,0,0-.122.851V-.421Zm3.188-5.1v-.839h.73v.839Zm0,5.1V-4.726h.73V-.421ZM258.109-2l.717.093a1.861,1.861,0,0,1-.6,1.161,1.754,1.754,0,0,1-1.19.42A1.848,1.848,0,0,1,255.614-.9a2.344,2.344,0,0,1-.537-1.656,3,3,0,0,1,.231-1.22,1.611,1.611,0,0,1,.7-.784,2.087,2.087,0,0,1,1.028-.261,1.786,1.786,0,0,1,1.147.355,1.627,1.627,0,0,1,.572,1.007l-.709.109A1.178,1.178,0,0,0,257.689-4a.928.928,0,0,0-.622-.219,1.133,1.133,0,0,0-.9.4,1.876,1.876,0,0,0-.345,1.251,1.94,1.94,0,0,0,.332,1.261,1.082,1.082,0,0,0,.867.393,1.022,1.022,0,0,0,.718-.263A1.308,1.308,0,0,0,258.109-2Zm4.575,1.577v-.632a1.576,1.576,0,0,1-1.366.73,1.741,1.741,0,0,1-.711-.146,1.172,1.172,0,0,1-.49-.367,1.375,1.375,0,0,1-.225-.541,3.706,3.706,0,0,1-.045-.681V-4.726h.73v2.388a4.251,4.251,0,0,0,.045.77.761.761,0,0,0,.292.452.9.9,0,0,0,.551.164,1.2,1.2,0,0,0,.616-.168.935.935,0,0,0,.407-.458,2.3,2.3,0,0,0,.12-.841V-4.726h.73V-.421Zm2.191,0V-6.364h.73V-.421Zm3.865-.653.105.645a2.707,2.707,0,0,1-.551.065,1.248,1.248,0,0,1-.616-.126.7.7,0,0,1-.308-.33,2.612,2.612,0,0,1-.089-.861V-4.159h-.535v-.568h.535V-5.792l.726-.438v1.5h.734v.568h-.734v2.517a1.271,1.271,0,0,0,.039.4.3.3,0,0,0,.126.142.486.486,0,0,0,.249.053A2.374,2.374,0,0,0,268.739-1.074Zm3.946.653v-.632a1.576,1.576,0,0,1-1.366.73,1.741,1.741,0,0,1-.711-.146,1.172,1.172,0,0,1-.49-.367,1.375,1.375,0,0,1-.225-.541,3.706,3.706,0,0,1-.045-.681V-4.726h.73v2.388a4.251,4.251,0,0,0,.045.77.761.761,0,0,0,.292.452.9.9,0,0,0,.551.164,1.2,1.2,0,0,0,.616-.168.935.935,0,0,0,.407-.458,2.3,2.3,0,0,0,.12-.841V-4.726h.73V-.421Zm2.2,0V-4.726h.657v.653a1.781,1.781,0,0,1,.464-.6.81.81,0,0,1,.468-.146,1.423,1.423,0,0,1,.75.235l-.251.677a1.044,1.044,0,0,0-.535-.158.7.7,0,0,0-.43.144.78.78,0,0,0-.272.4,2.843,2.843,0,0,0-.122.851V-.421Zm6.131-1.386.754.093a1.84,1.84,0,0,1-.661,1.026,1.986,1.986,0,0,1-1.232.365,1.969,1.969,0,0,1-1.5-.582,2.273,2.273,0,0,1-.553-1.632,2.379,2.379,0,0,1,.559-1.686,1.894,1.894,0,0,1,1.451-.6,1.841,1.841,0,0,1,1.411.588,2.335,2.335,0,0,1,.547,1.654q0,.065,0,.195h-3.211a1.654,1.654,0,0,0,.4,1.086,1.194,1.194,0,0,0,.9.377,1.117,1.117,0,0,0,.685-.211A1.4,1.4,0,0,0,281.016-1.807Zm-2.4-1.18h2.4a1.459,1.459,0,0,0-.276-.815,1.118,1.118,0,0,0-.9-.422,1.159,1.159,0,0,0-.845.336A1.332,1.332,0,0,0,278.62-2.987Z" transform="translate(52.444 44.25)" fill="#808183"/>
</svg>
