<svg xmlns="http://www.w3.org/2000/svg" xmlns:xlink="http://www.w3.org/1999/xlink" width="210.638" height="38" viewBox="0 0 210.638 38">
  <defs>
    <clipPath id="clip-path">
      <rect id="Rectangle_624" data-name="Rectangle 624" width="210.638" height="38" fill="none"/>
    </clipPath>
  </defs>
  <g id="logo-backstage" transform="translate(0 0)">
    <g id="Group_542" data-name="Group 542" transform="translate(0 0)" clip-path="url(#clip-path)">
      <path id="Path_1822" data-name="Path 1822" d="M59.513,32.578a23.41,23.41,0,0,1-20.9,9.313s-13.281-.159-20.266-14.446c0,0-4.127-9.366-11.429-8.466,0,0-7.514,1.64-6.879,10.688,0,0,1.218,9.366,15.24,15.345,0,0,31.536,11.959,44.235-12.434" transform="translate(0 -11.544)" fill="#fff"/>
      <path id="Path_1823" data-name="Path 1823" d="M38.9,53.111S25.094,51.206,17.95,35.384c0,0-4.391-7.99-9.947-4.921,0,0-5.2,3.234-1.746,9.584,0,0,9.471,16.4,32.647,13.064" transform="translate(-3.097 -18.161)" fill="#fff"/>
      <path id="Path_1824" data-name="Path 1824" d="M33.82,59.115a31.312,31.312,0,0,1-12.646-13.6s-4.234-7.937-10.213-4.074c0,0-4.021,2.963,1.64,8.731A37.272,37.272,0,0,0,33.82,59.115" transform="translate(-5.844 -24.642)" fill="#fff"/>
      <path id="Path_1825" data-name="Path 1825" d="M60.245,26.106S51.2,24.042,49.24,4.305a3.259,3.259,0,0,0-3.492-3.016s-3.387.477-2.646,6.3c0,0,1.8,13.6,17.144,18.52" transform="translate(-26.237 -0.787)" fill="#fff"/>
      <path id="Path_1826" data-name="Path 1826" d="M113.669,33.522s-6.615-13.281,7.09-20.266c0,0,5.027-2.857,5.185-5.45,0,0,5.45,19.631-9.789,24.076a19.069,19.069,0,0,1,3.327-10.53s-5.761,3.492-5.814,12.17" transform="translate(-68.39 -4.764)" fill="#fff"/>
      <path id="Path_1827" data-name="Path 1827" d="M110.4,14.186A3.393,3.393,0,1,1,107,10.793a3.393,3.393,0,0,1,3.393,3.393" transform="translate(-63.225 -6.586)" fill="#fff"/>
      <path id="Path_1828" data-name="Path 1828" d="M98.329,26.935a37.553,37.553,0,0,1,.439,8.152,28.633,28.633,0,0,0,.276-4.183C99,25.286,96.87,22.085,94.956,20.336a15.207,15.207,0,0,1,3.373,6.6" transform="translate(-57.944 -12.41)" fill="#fff"/>
      <path id="Path_1829" data-name="Path 1829" d="M80.176,19.663a18.153,18.153,0,0,0-3.8-12.34A8.418,8.418,0,0,0,74.1,6.032C67.88,3.254,66.028,0,66.028,0c-2.461,19.128,9.524,23.1,9.524,23.1a27.49,27.49,0,0,1,4.316,1.981c.493-7.933-9.2-12.524-9.2-12.524a16.313,16.313,0,0,1,9.149,7.569,13.7,13.7,0,0,0-1.834-5.39,1.5,1.5,0,0,1-1.37-.1,4.1,4.1,0,0,1-.848-.891,1.346,1.346,0,0,1,1.358,0,3.547,3.547,0,0,1,.9.905L78.1,14.6c-.058-.08-.113-.157-.161-.237-.152-.251-.3-.506-.427-.769a1.487,1.487,0,0,1-.037-1.01,1.167,1.167,0,0,1,.138-.338c.169.173.348.339.5.519a1.7,1.7,0,0,1,.507,1.049,1.776,1.776,0,0,1-.289.974,18.436,18.436,0,0,1,1.841,4.871M74.57,9.313l.017-.1.016-.042a2.886,2.886,0,0,1,1.22,1.065,1.591,1.591,0,0,1-.037,1.348c-.237-.233-.461-.438-.664-.657a2.645,2.645,0,0,1-.406-.521,1.692,1.692,0,0,1-.146-1.09m-1.786-1.34c1.352.546,1.751,1.179,1.448,2.234-.14-.1-.278-.184-.391-.285a9.654,9.654,0,0,1-.811-.771,1.383,1.383,0,0,1-.247-.822,3.278,3.278,0,0,1,0-.355m-.238,1.07a4.761,4.761,0,0,1-1.323-.905A1.688,1.688,0,0,1,70.859,7c1.335.364,1.866.9,1.688,2.046m-1.83-.983c-1-.364-1.886-.8-1.872-1.825,1.269.121,2.119.946,1.872,1.825M66.663,7.019c-.058-.051-.111-.105-.168-.159a1.826,1.826,0,0,1,2.579.681,1.791,1.791,0,0,1-1.266.158,2.727,2.727,0,0,1-1.145-.681M69,8.793c-.288-.1-.557-.221-.838-.329-.092-.035-.092-.079-.006-.14.186-.133.365-.275.565-.392a.867.867,0,0,1,.52-.106,3.708,3.708,0,0,1,1.381.452A1.573,1.573,0,0,1,69,8.793m1.957.847A4.6,4.6,0,0,1,69.894,9.1a1.443,1.443,0,0,1,1.474-.4,4.7,4.7,0,0,1,1.072.557,5.649,5.649,0,0,1-.536.3,1.307,1.307,0,0,1-.948.086m1.693,1.011a4.374,4.374,0,0,1-1.031-.677,1.419,1.419,0,0,1,1.362-.3,4.239,4.239,0,0,1,1.107.7,1.632,1.632,0,0,1-1.439.269M74.1,11.788c-.3-.224-.57-.478-.852-.718l-.017-.04a1.446,1.446,0,0,1,1.28-.177,3.849,3.849,0,0,1,1.075.835l.016.04a1.488,1.488,0,0,1-1.5.06m1.3,1.383a3.784,3.784,0,0,1-.781-.89,1.168,1.168,0,0,1,1.258,0c.39.264.44.59.83.944v.022a1.286,1.286,0,0,1-1.307-.072m1.774-.069c-.143-.167-.281-.309-.395-.463-.173-.237-.344-.475-.492-.724a1.492,1.492,0,0,1-.126-1,1.208,1.208,0,0,1,.107-.35c.184.156.377.305.546.469a1.681,1.681,0,0,1,.6.995,1.821,1.821,0,0,1-.237,1.077" transform="translate(-40.088 0)" fill="#fff"/>
      <path id="Path_1830" data-name="Path 1830" d="M53.169,25.494s-7.6-5.6-8-14.405c0,0,.05-2.926,2.738-2.5a3.066,3.066,0,0,1,1.587,3.135s.446,8.81,3.675,13.613" transform="translate(-27.563 -5.215)" fill="#fff"/>
      <path id="Path_1831" data-name="Path 1831" d="M52.255,26.468A18.379,18.379,0,0,1,46.9,15.824s-.08-1.976,1.309-1.976c0,0,1.389.318,1.112,2.2,0,0-1.073,6.523,2.937,10.418" transform="translate(-28.617 -8.45)" fill="#fff"/>
      <path id="Path_1832" data-name="Path 1832" d="M185.232,27.93a1.608,1.608,0,0,1,.215.9,1,1,0,0,1-.43.789.906.906,0,0,1-1.328-.467,12.248,12.248,0,0,0-5.023-4.915V37.092q-.036.825,0,1.938a1.106,1.106,0,0,1-.251.717,1.224,1.224,0,0,1-.718.18,1.291,1.291,0,0,1-.645-.144,7.979,7.979,0,0,1-.215-2.656V21.733q-3.195,7.822-7.643,11.84-.43.288-.645.036c-.143-.215-.1-.442.143-.682q4.413-4.629,7.248-13.67h-6.207a.514.514,0,0,1-.359-.179,4.8,4.8,0,0,1-.323-.61c-.072-.12-.036-.18.107-.18h7.679v-6.82c-2.13.406-5.172.793-7.133.937q-.646.036-.682-.324-.036-.43.61-.467c5.046-.837,10.5-2.586,13.08-4.236.311-.263.538-.347.682-.251q.968.682,1.758,1.22.61.4.394.826-.215.395-.861.287c-.431-.216-2.862.573-6.019,1.577v7.25H181.5a1.594,1.594,0,0,0,.9-.286q.754-.718,1.543-1.4a.414.414,0,0,1,.61-.036q.969.718,1.973,1.615c.335.286.454.55.359.789a.444.444,0,0,1-.466.287h-7.75v4.08q5.059,1.687,6.566,4.593m4.455-17.03q1.22.216,2.511.359c.646.12.957.358.933.718q-.036.5-1.147.861-.612.215-.611.646V30.741a3.527,3.527,0,0,1-.287,1.687,1.066,1.066,0,0,1-.718.143.9.9,0,0,1-.609-.215,3.674,3.674,0,0,1-.216-1.758V12.874a12.432,12.432,0,0,0-.179-1.722c-.072-.191.036-.274.323-.251m6.524,28.991a1.4,1.4,0,0,0-.682-.969,13.155,13.155,0,0,0-3.049-.969c-.336-.048-.491-.228-.467-.538.048-.263.251-.382.61-.359q4.27.394,5.167.035.394-.215.431-1.112V9.681a26.9,26.9,0,0,0-.144-2.727c-.049-.334.048-.49.287-.467q1.184.215,2.512.43.752.108.753.754,0,.574-1.075.825-.5.108-.5.969V36.518a3.213,3.213,0,0,1-.933,2.512,5.8,5.8,0,0,1-2.26,1.148q-.611.071-.646-.287" transform="translate(-102.803 -3.957)" fill="#fff"/>
      <path id="Path_1833" data-name="Path 1833" d="M395.761,30.484q.515-.552,1.213-1.213a.316.316,0,0,1,.4,0,11.049,11.049,0,0,1,1.764,1.617c.221.221.293.417.221.589s-.27.27-.589.294H365.181a.524.524,0,0,1-.368-.184,5.029,5.029,0,0,1-.331-.625c-.073-.121-.037-.183.111-.183h3.381l-.808-19.7q-.147-.955-.294-1.654-.037-.331.33-.183.846.367,1.544.735a16.639,16.639,0,0,0,3.418-2.757q.331-.551.589-.4,1.176.405,2.094.735c.465.172.663.417.589.736a.6.6,0,0,1-.661.477,2.557,2.557,0,0,0-1.323.257A25.088,25.088,0,0,1,369,10.93l.22,5.293h1.544A8.647,8.647,0,0,0,372.5,14.9c.123-.122.232-.134.331-.036a10.05,10.05,0,0,1,1.581,1.471.928.928,0,0,1,.221.624q-.074.221-.552.258h-4.814l.22,5.476h1.14a8.662,8.662,0,0,0,1.728-1.323q.182-.183.33-.037a10.053,10.053,0,0,1,1.581,1.47.927.927,0,0,1,.22.625q-.073.221-.552.257h-4.41l.331,7.094h5.844V10.525a19.606,19.606,0,0,0-.147-2.279q-.036-.367.294-.22a19.113,19.113,0,0,1,2.021,1.139h7.388q.441-.036,1.581-1.139a.446.446,0,0,1,.515-.037,5.479,5.479,0,0,1,1.8,1.618.626.626,0,0,1-.184.993,4.429,4.429,0,0,0-.772.367q-.331.148-.331.956V30.778h5.734l.183-7.241h-3.748a.527.527,0,0,1-.368-.183,4.9,4.9,0,0,1-.331-.625c-.073-.122-.037-.184.11-.184h4.373L394,16.626h-3.969a.525.525,0,0,1-.368-.184,4.928,4.928,0,0,1-.331-.625c-.073-.122-.037-.183.11-.183h4.594l.185-5.624c.023-.294-.123-.441-.442-.441h-3.9l-.183-.992h3.933a10.417,10.417,0,0,0,1.4-1.14.334.334,0,0,1,.441-.037,7.909,7.909,0,0,1,2.022,1.507q.734,1.029-.956,1.507-.441.074-.478.661l-.661,19.7a2.356,2.356,0,0,1,.367-.294M375.8,32.61q1.066.5,1.874.916.662.334.515.875a.809.809,0,0,1-.845.458,1.507,1.507,0,0,0-1.4.5,23.215,23.215,0,0,1-10.4,5.121q-.441.084-.477-.291a.425.425,0,0,1,.294-.541,23.655,23.655,0,0,0,9.777-6.662q.331-.54.661-.375m1.765-1.833h8.417v-20.4c0-.147-.16-.22-.478-.22h-7.939Zm3.566-17.349q.072-.073,1.727-1.507a.316.316,0,0,1,.4,0,11.043,11.043,0,0,1,1.764,1.617q.331.332.221.589c-.072.171-.27.27-.587.294h-5.514a.531.531,0,0,1-.368-.184,4.926,4.926,0,0,1-.331-.625c-.073-.122-.037-.183.111-.183ZM380.692,25.2v1.47a.9.9,0,0,1-.221.662.729.729,0,0,1-.589.184,1.771,1.771,0,0,1-.735-.184.863.863,0,0,1-.183-.624V19.14a15.611,15.611,0,0,0-.148-2.058q-.073-.367.3-.221.734.3,1.653.735h1.286a5.806,5.806,0,0,0,1.25-.772.368.368,0,0,1,.441-.073,10.1,10.1,0,0,1,1.543,1.066.646.646,0,0,1,.037.919,2.2,2.2,0,0,1-.625.368,2.061,2.061,0,0,0-.147,1.066v4.741q-.037,1.8-.293,2.022a1.182,1.182,0,0,1-.7.183,1.049,1.049,0,0,1-.589-.147,1.55,1.55,0,0,1-.147-.845V25.2Zm0-.308h2.132V19.641c0-.245-.147-.368-.441-.368h-1.69Zm12.734,11.065q4.132,1.779,4.685,3.6a1.115,1.115,0,0,1-.341,1.027,1.132,1.132,0,0,1-.894.316,1.747,1.747,0,0,1-.894-.474,24.11,24.11,0,0,0-9.5-5.772c-.313-.132-.455-.317-.426-.553a.473.473,0,0,1,.639-.2,36.514,36.514,0,0,1,6.728,2.055" transform="translate(-222.393 -4.139)" fill="#fff"/>
      <path id="Path_1834" data-name="Path 1834" d="M281.623,30.767H270.414l.179.615h7.689l.087.114a26.133,26.133,0,0,1-.741,5.9l.093-.267c-1.218,5.395-3.006,10.609-7.939,15.366-.574.391-.778.772-.61,1.133.095.21.274.244.538.094a36.872,36.872,0,0,0,6.084-6.1c4.6-6.238,5.786-15.013,6-16.859Z" transform="translate(-164.22 -18.775)" fill="#fff"/>
      <path id="Path_1835" data-name="Path 1835" d="M309.625,12.058V7.151c-.615-.1-1.273-.2-1.89-.3-.273-.023-.278.132-.225.466a24.02,24.02,0,0,1,.268,2.727V42.182c0-.124.454-.267.711-.431a2.687,2.687,0,0,0,1.136-2.511V12.058Z" transform="translate(-187.633 -4.182)" fill="#fff"/>
      <path id="Path_1836" data-name="Path 1836" d="M318.668,26.029h3.713s.7,19.119,9.98,24.643c0,0,.256.833-.974.476,0,0-10.057-6.651-12.718-25.119" transform="translate(-194.458 -15.884)" fill="#fff"/>
      <path id="Path_1837" data-name="Path 1837" d="M342.184,22.759a2.112,2.112,0,1,1-2.112-2.112,2.112,2.112,0,0,1,2.112,2.112" transform="translate(-206.231 -12.599)" fill="#fff"/>
      <path id="Path_1838" data-name="Path 1838" d="M493.754,12h-5V9.353c-.616-.07-1.148-.151-1.787-.248-.268-.021-.645.032-.618.16a2.62,2.62,0,0,1-.058.988V12h-6.156V9.335a10.4,10.4,0,0,0-1.486-.23c-.267-.021-.488.032-.461.16a9.107,9.107,0,0,1,.1.988V12H470.9v9c0,.276-.053.468.106.574a1.261,1.261,0,0,0,.773.191,1.214,1.214,0,0,0,.725-.159.831.831,0,0,0,.243-.638v-.348h21.546v.763c0,.319.279.49.706.51.536.018,1.141-.024,1.141-.126V12Zm-15.466,8h-5.54V16.93h5.54Zm0-3.694h-5.54V13.236h5.54Zm8,3.694h-6.156V16.93h6.156Zm0-3.694h-6.156V13.236h6.156Zm8,3.694h-5.54V16.93h5.54Zm0-3.694h-5.54V13.236h5.522c.266,0,.019-.175.019.016Z" transform="translate(-287.349 -5.553)" fill="#fff"/>
      <path id="Path_1839" data-name="Path 1839" d="M495.528,52.878H479.022c-.143,0-.179.2-.107.324a5.542,5.542,0,0,0,.322.668.49.49,0,0,0,.359.239H501.63V52.878Z" transform="translate(-292.223 -32.267)" fill="#fff"/>
      <path id="Path_1840" data-name="Path 1840" d="M486.953,62.355H470.447c-.144,0-.179.122-.107.241a6.05,6.05,0,0,0,.323.71c.072.1.191.28.359.28h26.607V62.355Z" transform="translate(-286.99 -38.051)" fill="#fff"/>
      <path id="Path_1841" data-name="Path 1841" d="M481.947,44.981H467.112c-.144,0-.179.073-.107.192a6.4,6.4,0,0,0,.323.735c.071.1.191.3.358.3h27.906V44.981Z" transform="translate(-284.955 -27.449)" fill="#fff"/>
      <path id="Path_1842" data-name="Path 1842" d="M488.444,68.2s-.789.35.465.583c0,0,9.52,1.041,11.979,5.966h-14.26V65.513h-3.078V75.978h21.223c-.712-1.231-5.207-8.118-16.328-7.78" transform="translate(-295.073 -39.978)" fill="#fff"/>
      <path id="Path_1843" data-name="Path 1843" d="M531.653,70.154a1.874,1.874,0,1,1-1.874-1.874,1.874,1.874,0,0,1,1.874,1.874" transform="translate(-322.139 -41.666)" fill="#fff"/>
      <path id="Path_1844" data-name="Path 1844" d="M465.993,46.561a9.094,9.094,0,0,0-2.182,8.526s1.3,7.025-1.671,9.207c0,0-.233.449.974-.016,0,0,4.827-2.128,2.878-10.623,0,0-1.346-5.248,1.16-7.1Z" transform="translate(-281.998 -28.413)" fill="#fff"/>
    </g>
  </g>
</svg>
